<?xml version="1.0" encoding="UTF-8"?>
<svg width="364px" height="457px" viewBox="0 0 364 457" version="1.1" xmlns="http://www.w3.org/2000/svg" xmlns:xlink="http://www.w3.org/1999/xlink">
    <!-- Generator: Sketch 57.1 (83088) - https://sketch.com -->
    <title>icon-document</title>
    <desc>Created with Sketch.</desc>
    <g id="Page-1" stroke="none" stroke-width="1" fill="none" fill-rule="evenodd">
        <g id="Logo" transform="translate(-68.000000, -22.000000)" fill-rule="nonzero">
            <g id="icon-document" transform="translate(68.000000, 22.000000)">
                <path d="M45.5,0 L182,0 L182,137.1 C182,162.235 202.475,182.8 227.5,182.8 L364,182.8 L364,411.3 C364,436.539413 343.628956,457 318.5,457 L45.5,457 C20.3710439,457 0,436.539413 0,411.3 L0,45.7 C0,20.565 20.475,0 45.5,0 Z" id="Path" fill="#035388"></path>
                <polygon id="Path" fill="#035388" points="228 0 364 137 228 137"></polygon>
                <path d="M129,387 L129,202 L207,202 C213.00003,202 219.124969,202.708326 225.375,204.125 C231.625031,205.541674 237.374974,208.374979 242.625,212.625 C247.875026,216.875021 252.124984,223.249957 255.375,231.75 C258.625016,240.250043 260.25,251.49993 260.25,265.5 C260.25,279.50007 258.625016,290.83329 255.375,299.5 C252.124984,308.16671 247.916693,314.749977 242.75,319.25 C237.583307,323.750023 232.00003,326.749992 226,328.25 C219.99997,329.750008 214.166695,330.5 208.5,330.5 C205.499985,330.5 202.00002,330.375001 198,330.125 C193.99998,329.874999 189.958354,329.5 185.875,329 C181.791646,328.5 178.000018,328.041669 174.5,327.625 C170.999982,327.208331 168.166677,326.833335 166,326.5 L166,387 L129,387 Z M166,297.25 L202.75,297.25 C207.083355,297.25 210.791651,296.208344 213.875,294.125 C216.958349,292.041656 219.249993,288.708356 220.75,284.125 C222.250007,279.541644 223,273.416705 223,265.75 C223,258.249963 222.208341,252.291689 220.625,247.875 C219.041659,243.458311 216.791681,240.25001 213.875,238.25 C210.958319,236.24999 207.50002,235.25 203.5,235.25 L166,235.25 L166,297.25 Z" id="P" fill="#FFFFFF"></path>
            </g>
        </g>
    </g>
</svg>