<?xml version="1.0" encoding="utf-8"?>
<!-- Generator: Adobe Illustrator 23.0.1, SVG Export Plug-In . SVG Version: 6.00 Build 0)  -->
<svg version="1.1" id="Layer_1" xmlns="http://www.w3.org/2000/svg" xmlns:xlink="http://www.w3.org/1999/xlink" x="0px" y="0px"
	 viewBox="0 0 612 792" style="enable-background:new 0 0 612 792;" xml:space="preserve">
<style type="text/css">
	.st0{clip-path:url(#SVGID_2_);}
	.st1{clip-path:url(#SVGID_4_);fill:url(#SVGID_5_);}
	.st2{clip-path:url(#SVGID_7_);}
	.st3{clip-path:url(#SVGID_9_);fill:url(#SVGID_10_);}
	.st4{clip-path:url(#SVGID_12_);}
	.st5{clip-path:url(#SVGID_14_);fill:url(#SVGID_15_);}
	.st6{clip-path:url(#SVGID_17_);}
	.st7{clip-path:url(#SVGID_19_);fill:url(#SVGID_20_);}
	.st8{clip-path:url(#SVGID_22_);}
	.st9{clip-path:url(#SVGID_24_);fill:url(#SVGID_25_);}
</style>
<g id="Artwork_1_1_">
	<g>
		<g>
			<defs>
				<rect id="SVGID_1_" x="37.5" y="116" width="552.5" height="487"/>
			</defs>
			<clipPath id="SVGID_2_">
				<use xlink:href="#SVGID_1_"  style="overflow:visible;"/>
			</clipPath>
			<g class="st0">
				<g>
					<defs>
						<path id="SVGID_3_" d="M313.33,116c-18.97,0.22-34.42,15.45-34.42,34.02v418.97c0,18.71,15.68,34.02,34.84,34.02
							s34.83-15.31,34.83-34.02V150.02c0-18.57-15.45-33.79-34.41-34.02H313.33z"/>
					</defs>
					<clipPath id="SVGID_4_">
						<use xlink:href="#SVGID_3_"  style="overflow:visible;"/>
					</clipPath>
					
						<linearGradient id="SVGID_5_" gradientUnits="userSpaceOnUse" x1="-3.5098" y1="793.2723" x2="-0.6752" y2="793.2723" gradientTransform="matrix(0 -171.8041 171.8041 0 -135973.6719 0)">
						<stop  offset="0" style="stop-color:#014D40"/>
						<stop  offset="1" style="stop-color:#27AB83"/>
					</linearGradient>
					<rect x="278.91" y="116" class="st1" width="69.67" height="487"/>
				</g>
			</g>
		</g>
		<g>
			<defs>
				<rect id="SVGID_6_" x="37.5" y="116" width="552.5" height="487"/>
			</defs>
			<clipPath id="SVGID_7_">
				<use xlink:href="#SVGID_6_"  style="overflow:visible;"/>
			</clipPath>
			<g class="st2">
				<g>
					<defs>
						<path id="SVGID_8_" d="M192.32,198.9c-19.16,0-34.83,15.31-34.83,34.02v253.17c0,18.71,15.68,34.02,34.83,34.02h2.9
							c19.16,0,34.84-15.31,34.84-34.02V232.91c0-18.71-15.68-34.02-34.84-34.02L192.32,198.9L192.32,198.9z"/>
					</defs>
					<clipPath id="SVGID_9_">
						<use xlink:href="#SVGID_8_"  style="overflow:visible;"/>
					</clipPath>
					
						<linearGradient id="SVGID_10_" gradientUnits="userSpaceOnUse" x1="-4.848" y1="793.2349" x2="-2.0134" y2="793.2349" gradientTransform="matrix(0 -113.3146 113.3146 0 -89691.3281 -29.2448)">
						<stop  offset="0" style="stop-color:#014D40"/>
						<stop  offset="1" style="stop-color:#27AB83"/>
					</linearGradient>
					<rect x="157.48" y="198.9" class="st3" width="72.57" height="321.2"/>
				</g>
			</g>
		</g>
		<g>
			<defs>
				<rect id="SVGID_11_" x="37.5" y="116" width="552.5" height="487"/>
			</defs>
			<clipPath id="SVGID_12_">
				<use xlink:href="#SVGID_11_"  style="overflow:visible;"/>
			</clipPath>
			<g class="st4">
				<g>
					<defs>
						<path id="SVGID_13_" d="M432.28,198.9c-19.16,0-34.83,15.31-34.83,34.02v253.17c0,18.71,15.68,34.02,34.83,34.02h2.9
							c19.16,0,34.83-15.31,34.83-34.02V232.91c0-18.71-15.68-34.02-34.83-34.02L432.28,198.9L432.28,198.9z"/>
					</defs>
					<clipPath id="SVGID_14_">
						<use xlink:href="#SVGID_13_"  style="overflow:visible;"/>
					</clipPath>
					
						<linearGradient id="SVGID_15_" gradientUnits="userSpaceOnUse" x1="-4.848" y1="794.6231" x2="-2.0134" y2="794.6231" gradientTransform="matrix(0 -113.3146 113.3146 0 -89608.6641 -29.2448)">
						<stop  offset="0" style="stop-color:#014D40"/>
						<stop  offset="1" style="stop-color:#27AB83"/>
					</linearGradient>
					<rect x="397.45" y="198.9" class="st5" width="72.57" height="321.2"/>
				</g>
			</g>
		</g>
		<g>
			<defs>
				<rect id="SVGID_16_" x="37.5" y="116" width="552.5" height="487"/>
			</defs>
			<clipPath id="SVGID_17_">
				<use xlink:href="#SVGID_16_"  style="overflow:visible;"/>
			</clipPath>
			<g class="st6">
				<g>
					<defs>
						<path id="SVGID_18_" d="M72.34,283.94c-19.16,0-34.84,15.31-34.84,34.02v83.09c0,18.71,15.68,34.02,34.84,34.02h2.9
							c19.16,0,34.83-15.31,34.83-34.02v-83.09c0-18.71-15.68-34.02-34.83-34.02H72.34z"/>
					</defs>
					<clipPath id="SVGID_19_">
						<use xlink:href="#SVGID_18_"  style="overflow:visible;"/>
					</clipPath>
					
						<linearGradient id="SVGID_20_" gradientUnits="userSpaceOnUse" x1="-9.2717" y1="793.1495" x2="-6.437" y2="793.1495" gradientTransform="matrix(0 -53.3146 53.3146 0 -42212.6641 -59.2448)">
						<stop  offset="0" style="stop-color:#014D40"/>
						<stop  offset="1" style="stop-color:#27AB83"/>
					</linearGradient>
					<rect x="37.5" y="283.94" class="st7" width="72.57" height="151.13"/>
				</g>
			</g>
		</g>
		<g>
			<defs>
				<rect id="SVGID_21_" x="37.5" y="116" width="552.5" height="487"/>
			</defs>
			<clipPath id="SVGID_22_">
				<use xlink:href="#SVGID_21_"  style="overflow:visible;"/>
			</clipPath>
			<g class="st8">
				<g>
					<defs>
						<path id="SVGID_23_" d="M552.26,283.94c-19.16,0-34.83,15.31-34.83,34.02v83.09c0,18.71,15.68,34.02,34.83,34.02h2.9
							c19.16,0,34.83-15.31,34.83-34.02v-83.09c0-18.71-15.68-34.02-34.83-34.02H552.26z"/>
					</defs>
					<clipPath id="SVGID_24_">
						<use xlink:href="#SVGID_23_"  style="overflow:visible;"/>
					</clipPath>
					
						<linearGradient id="SVGID_25_" gradientUnits="userSpaceOnUse" x1="-9.2717" y1="799.0502" x2="-6.437" y2="799.0502" gradientTransform="matrix(0 -53.3146 53.3146 0 -42047.332 -59.2448)">
						<stop  offset="0" style="stop-color:#014D40"/>
						<stop  offset="1" style="stop-color:#27AB83"/>
					</linearGradient>
					<rect x="517.43" y="283.94" class="st9" width="72.57" height="151.13"/>
				</g>
			</g>
		</g>
	</g>
</g>
</svg>
