<?xml version="1.0" encoding="UTF-8"?>
<svg width="145px" height="25px" viewBox="0 0 145 25" version="1.1" xmlns="http://www.w3.org/2000/svg" xmlns:xlink="http://www.w3.org/1999/xlink">
    <!-- Generator: Sketch 56.2 (81672) - https://sketch.com -->
    <title>Group 7 Copy 3</title>
    <desc>Created with Sketch.</desc>
    <g id="Page-1" stroke="none" stroke-width="1" fill="none" fill-rule="evenodd">
        <g id="Home" transform="translate(-18.000000, -23.000000)" fill-rule="nonzero">
            <g id="Group-7-Copy-3" transform="translate(18.000000, 23.000000)">
                <g id="Group">
                    <polygon id="Path" fill="#425563" transform="translate(8.125444, 10.950815) rotate(-180.000000) translate(-8.125444, -10.950815) " points="-5.86260823e-14 12.3875188 5.68434189e-14 6.20644796 10.6451403 5.32879442e-13 16.2508876 3.24746413 16.2508876 15.6284735 5.53455177 21.9016299 1.94054304 19.7687072 4.35258569 18.3763291 5.53455177 19.0886219 13.8232387 14.2365689 13.8232387 4.65313311 10.6326144 2.82007791 2.35828749 7.63895552 2.35828749 13.783185"></polygon>
                    <polygon id="Path" fill="#17C4F1" points="5.20210476 15.5123985 5.20210476 9.25834942 15.847245 3.01722076 21.4529923 6.29936559 21.4529923 18.6803749 10.7366565 24.9188506 9.16793024 24.001625 7.15129216 22.8225078 9.56053786 21.4231909 10.7366565 22.1058426 19.0253434 17.2884703 19.0253434 7.70503457 15.8347192 5.83729867 7.56039225 10.690857 7.56039225 16.9044479"></polygon>
                </g>
                <path d="M34.9615427,16.5028888 L34.9615427,18.6613808 L27.1896675,18.6613808 L27.1896675,4.93812443 L29.6848051,4.93812443 L29.6848051,16.5028888 L34.9615427,16.5028888 Z M45.2355546,18.344538 C44.7734898,18.4633546 44.1728146,18.5854699 43.4335109,18.7108875 C42.6942072,18.8363051 41.8823054,18.899013 40.9977814,18.899013 C40.1660647,18.899013 39.4696775,18.7801981 38.9085988,18.5425648 C38.3475201,18.3049314 37.8986638,17.9748901 37.5620166,17.5524308 C37.2253694,17.1299716 36.9844392,16.6250083 36.8392188,16.0375259 C36.6939985,15.4500435 36.6213894,14.8064629 36.6213894,14.1067647 L36.6213894,8.30457982 L39.0175135,8.30457982 L39.0175135,13.7305138 C39.0175135,14.8394694 39.1792337,15.6315686 39.5026791,16.1068353 C39.8261245,16.5821019 40.3904952,16.8197317 41.1958082,16.8197317 C41.4862489,16.8197317 41.7931873,16.80653 42.1166327,16.7801263 C42.4400781,16.7537226 42.6810083,16.7207185 42.8394305,16.6811129 L42.8394305,8.30457982 L45.2355546,8.30457982 L45.2355546,18.344538 Z M66.0198581,18.6613808 L63.623734,18.6613808 L63.623734,8.30457982 L66.0198581,8.30457982 L66.0198581,18.6613808 Z M55.6117484,11.7534712 C55.6513539,12.1231231 55.6711564,12.5191727 55.6711564,12.941632 L55.6711564,18.6646061 L53.2750323,18.6646061 L53.2750323,13.2188695 C53.2750323,12.1363176 53.1397153,11.3541196 52.8690774,10.872252 C52.5984394,10.3903844 52.0934762,10.1494543 51.3541724,10.1494543 C51.0901354,10.1494543 50.799699,10.1692567 50.4828546,10.2088623 C50.1660101,10.2484678 49.9283804,10.281472 49.7699581,10.3078757 L49.7699581,18.6646061 L47.373834,18.6646061 L47.373834,8.64445067 C47.8358988,8.51243215 48.4398745,8.38701644 49.1857791,8.26819977 C49.9316838,8.1493831 50.7204826,8.08997566 51.5521992,8.08997566 C52.2650992,8.08997566 52.8492724,8.18238724 53.3047363,8.36721316 C53.7602002,8.55203909 54.6551059,9.02828498 55.1136244,9.89875697 C55.5721428,10.769229 55.5721428,11.3838194 55.6117484,11.7534712 Z M55.2463212,8.64597989 C55.4131382,8.56894933 55.5926783,8.49283998 55.7503671,8.43652254 C56.027606,8.33750865 56.3213428,8.25499831 56.6315863,8.18898905 C56.9418299,8.12297979 57.2553691,8.08997566 57.5722136,8.08997566 C58.3775265,8.08997566 59.0409097,8.20549013 59.5623828,8.43652254 C60.083856,8.66755495 60.4931072,8.99099546 60.7901489,9.4068538 C61.0871906,9.82271213 61.2918162,10.324375 61.4040319,10.9118574 C61.5162477,11.4993398 61.5723547,12.1429204 61.5723547,12.8426186 L61.5723547,18.6646061 L59.1762306,18.6646061 L59.1762306,13.2188695 C59.1762306,12.1363176 59.044214,11.3541196 58.780177,10.872252 C58.51614,10.3903844 58.0078763,10.1494543 57.2553707,10.1494543 C57.1851915,10.1494543 57.1156778,10.1515613 57.0468297,10.1557754 C57.0468297,10.1494543 55.2463212,8.64597989 55.2463212,8.64597989 Z M66.2772929,5.27476997 C66.2772929,5.72363293 66.1320747,6.08007758 65.841634,6.34411462 C65.5511932,6.60815166 65.2079502,6.7401682 64.8118947,6.7401682 C64.4026373,6.7401682 64.0527935,6.60815166 63.7623527,6.34411462 C63.471912,6.08007758 63.3266938,5.72363293 63.3266938,5.27476997 C63.3266938,4.81270515 63.471912,4.44965967 63.7623527,4.18562263 C64.0527935,3.9215856 64.4026373,3.78956906 64.8118947,3.78956906 C65.2079502,3.78956906 65.5511932,3.9215856 65.841634,4.18562263 C66.1320747,4.44965967 66.2772929,4.81270515 66.2772929,5.27476997 Z M68.1641941,8.64122536 C68.6262589,8.50920684 69.2269342,8.38379113 69.9662379,8.26497446 C70.7055416,8.1461578 71.5240441,8.08675035 72.4217701,8.08675035 C73.2666886,8.08675035 73.9729771,8.20226483 74.5406567,8.43329723 C75.1083363,8.66432964 75.560493,8.98777016 75.8971402,9.40362849 C76.2337874,9.81948683 76.4714172,10.3211497 76.6100366,10.9086321 C76.7486561,11.4961145 76.8179647,12.1396951 76.8179647,12.8393933 L76.8179647,18.6613808 L74.4218406,18.6613808 L74.4218406,13.2156442 C74.4218406,12.6611664 74.3855361,12.1892073 74.3129259,11.7997526 C74.2403157,11.410298 74.1215008,11.0934583 73.9564777,10.849224 C73.7914545,10.6049898 73.5670264,10.4267675 73.2831866,10.3145517 C72.9993468,10.202336 72.6528034,10.1462289 72.2435459,10.1462289 C71.9399034,10.1462289 71.6230637,10.1660314 71.2930174,10.205637 C70.9629711,10.2452425 70.7187405,10.2782467 70.5603182,10.3046504 L70.5603182,18.6613808 L68.1641941,18.6613808 L68.1641941,8.64122536 Z M82.2891508,8.047145 C83.0812619,8.047145 83.7479454,8.1461574 84.2892214,8.34418518 C84.8304973,8.54221296 85.2628514,8.81944769 85.5862968,9.17589769 C85.9097422,9.53234769 86.1407711,9.96470185 86.2793906,10.4729731 C86.41801,10.9812444 86.4873187,11.5390143 86.4873187,12.1462995 L86.4873187,18.4237487 C86.1176669,18.5029598 85.559897,18.5986718 84.8139923,18.7108875 C84.0680877,18.8231033 83.2264823,18.8792103 82.2891508,18.8792103 C81.6686638,18.8792103 81.1009926,18.8198029 80.5861204,18.7009862 C80.0712482,18.5821695 79.6322932,18.3907455 79.2692423,18.1267085 C78.9061914,17.8626715 78.6223558,17.5194285 78.4177271,17.0969692 C78.2130984,16.6745099 78.1107856,16.1530446 78.1107856,15.5325576 C78.1107856,14.9384742 78.2263,14.4368114 78.4573325,14.027554 C78.6883649,13.6182966 79.0019041,13.2849548 79.3979597,13.0275187 C79.7940153,12.7700826 80.2527727,12.5852594 80.7742459,12.4730437 C81.295719,12.360828 81.8402872,12.3047209 82.4079669,12.3047209 C82.6720039,12.3047209 82.9492386,12.321223 83.2396794,12.3542276 C83.5301201,12.3872323 83.840359,12.4433393 84.1704053,12.5225504 L84.1704053,12.1264968 C84.1704053,11.8492579 84.1374012,11.5852249 84.0713919,11.3343897 C84.0053826,11.0835545 83.8898682,10.8624268 83.724845,10.6709999 C83.5598219,10.4795731 83.3419946,10.3310545 83.0713566,10.2254397 C82.8007187,10.1198248 82.4607761,10.0670182 82.0515187,10.0670182 C81.4970409,10.0670182 80.9887772,10.1066232 80.5267124,10.1858343 C80.0646476,10.2650454 79.6884004,10.357457 79.3979597,10.4630718 L79.1009195,8.52240929 C79.4045621,8.41679447 79.8468175,8.31118124 80.427699,8.20556643 C81.0085805,8.09995161 81.6290582,8.047145 82.2891508,8.047145 Z M82.4871776,16.9781531 C83.2264813,16.9781531 83.7875516,16.9385482 84.1704053,16.8593371 L84.1704053,14.2057781 C84.0383868,14.1661725 83.8469628,14.1265676 83.5961276,14.086962 C83.3452924,14.0473565 83.0680577,14.027554 82.7644151,14.027554 C82.5003781,14.027554 82.2330446,14.0473565 81.9624066,14.086962 C81.6917686,14.1265676 81.447538,14.1991767 81.2297075,14.3047915 C81.0118769,14.4104063 80.836955,14.5589249 80.7049365,14.7503518 C80.572918,14.9417786 80.5069097,15.1827088 80.5069097,15.4731495 C80.5069097,16.0408292 80.685132,16.4335784 81.041582,16.6514089 C81.398032,16.8692395 81.8798924,16.9781531 82.4871776,16.9781531 Z M93.9242554,10.3284177 C93.8224418,10.3043784 93.7117653,10.2799538 93.5922258,10.2551437 C93.2423767,10.1825335 92.8364258,10.1462289 92.374361,10.1462289 C92.110324,10.1462289 91.8297888,10.1726323 91.5327472,10.2254397 C91.2357055,10.2782471 91.0277795,10.3244529 90.9089628,10.3640584 L90.9089628,18.6613808 L88.5128387,18.6613808 L88.5128387,8.79964679 C88.9749035,8.62802272 89.5524758,8.46630246 90.245573,8.31448116 C90.9386703,8.16265986 91.7076666,8.08675035 92.5525851,8.08675035 C92.7110073,8.08675035 92.8958305,8.09665159 93.1070601,8.11645437 C93.1566801,8.12110625 93.2062999,8.12612235 93.2559196,8.13150271 C93.4672227,8.87977794 93.6900009,9.61208187 93.9242554,10.3284177 L93.9242554,10.3284177 Z M104.400234,8.30457982 C103.330884,12.2387317 102.089928,15.8031782 100.67733,18.9980264 C100.413293,19.5921097 100.142659,20.1003734 99.8654203,20.5228326 C99.5881814,20.9452919 99.2779426,21.2951357 98.9346944,21.5723746 C98.5914463,21.8496135 98.2085983,22.0509387 97.786139,22.1763563 C97.3636798,22.3017739 96.8752186,22.3644818 96.3207408,22.3644818 C95.951089,22.3644818 95.5847431,22.3248768 95.2216921,22.2456657 C94.8586412,22.1664546 94.5847069,22.0806438 94.399881,21.9882309 L94.8355399,20.067371 C95.3108066,20.2521969 95.7794653,20.3446085 96.2415301,20.3446085 C96.8620171,20.3446085 97.3471779,20.1960899 97.697027,19.8990482 C98.0468761,19.6020066 98.3538145,19.1432491 98.6178515,18.5227621 C97.865346,17.0705584 97.1425554,15.4863599 96.4494582,13.7701192 C95.756361,12.0538784 95.1391837,10.2320502 94.5979077,8.30457982 L97.1524533,8.30457982 C97.2844718,8.8590576 97.4461921,9.45973285 97.6376189,10.1066236 C97.8290458,10.7535143 98.0369718,11.4102966 98.2614033,12.0769901 C98.4858348,12.7436836 98.7234646,13.4070668 98.9742998,14.0671593 C99.2251349,14.7272519 99.4759664,15.3411288 99.7268016,15.9088085 C100.149261,14.7338437 100.54531,13.482987 100.914962,12.1562008 C101.284614,10.8294147 101.621256,9.5455539 101.924899,8.30457982 L104.400234,8.30457982 Z" id="Shape" fill="#425563"></path>
                <path d="M112.472557,18.8496532 C111.448223,18.8496532 110.528962,18.6920657 109.714748,18.3768859 C108.900533,18.0617061 108.211088,17.5987928 107.646391,16.988132 C107.081694,16.3774712 106.648328,15.6322136 106.346281,14.7523368 C106.044234,13.8724599 105.893212,12.8612734 105.893212,11.7187467 C105.893212,10.5762201 106.067215,9.5650335 106.415226,8.68515666 C106.763237,7.80527982 107.239283,7.06002219 107.843377,6.4493614 C108.447472,5.83870061 109.156616,5.37578727 109.97083,5.06060751 C110.785044,4.74542775 111.658342,4.58784023 112.590749,4.58784023 C113.155446,4.58784023 113.667605,4.63052018 114.127242,4.71588137 C114.586879,4.80124255 114.987414,4.89645168 115.328859,5.0015116 C115.670304,5.10657152 115.952648,5.21819601 116.175901,5.33638842 C116.399153,5.45458083 116.55674,5.53994074 116.648668,5.5924707 L115.919818,7.62143028 C115.604638,7.42444293 115.154857,7.23730775 114.570462,7.06001913 C113.986066,6.88273052 113.352433,6.79408754 112.669543,6.79408754 C112.078581,6.79408754 111.527025,6.89586281 111.014858,7.09941641 C110.502691,7.30297 110.059476,7.60829582 109.6852,8.01540301 C109.310924,8.42251021 109.01873,8.93466964 108.80861,9.55189668 C108.598491,10.1691237 108.493432,10.8848337 108.493432,11.6990481 C108.493432,12.421335 108.575509,13.0845158 108.739665,13.6886104 C108.903821,14.2927049 109.156618,14.8147136 109.498063,15.254652 C109.839507,15.6945904 110.272873,16.03603 110.798173,16.2789811 C111.323472,16.5219322 111.953822,16.6434059 112.689242,16.6434059 C113.569119,16.6434059 114.284829,16.5547629 114.836393,16.3774743 C115.387958,16.2001857 115.814757,16.0327489 116.116805,15.8751591 L116.786558,17.9041186 C116.628968,18.0091786 116.415569,18.1142369 116.146353,18.2192968 C115.877136,18.3243567 115.558678,18.426132 115.190969,18.5246257 C114.823259,18.6231194 114.409592,18.7019131 113.949955,18.7610093 C113.490317,18.8201055 112.997856,18.8496532 112.472557,18.8496532 Z M126.455676,18.5541736 C126.074833,17.7793567 125.595505,16.9257577 125.017675,15.9933509 C124.439846,15.0609441 123.83576,14.161382 123.205401,13.2946376 C122.942751,13.6360824 122.657123,14.0431835 122.34851,14.5159531 C122.039896,14.9887228 121.731288,15.4713345 121.422674,15.9638029 C121.11406,16.4562713 120.828433,16.9323169 120.565783,17.3919541 C120.303134,17.8515912 120.093017,18.2389939 119.935427,18.5541736 L117.118522,18.5541736 C117.709484,17.437912 118.392363,16.2921194 119.16718,15.1167615 C119.941997,13.9414037 120.782464,12.7102512 121.688606,11.4232672 L117.315508,4.90301842 L120.270304,4.90301842 L123.284195,9.57159531 L126.258689,4.90301842 L129.095293,4.90301842 L124.781292,11.4035685 C125.779361,12.756215 126.662508,14.0366136 127.430758,15.2448027 C128.199009,16.4529918 128.845774,17.5561044 129.371074,18.5541736 L126.455676,18.5541736 Z M133.445779,4.90301842 C133.734693,5.40205304 134.056434,6.01270467 134.411012,6.73499163 C134.765589,7.45727859 135.126727,8.21566851 135.494437,9.01018417 C135.862146,9.80469982 136.226568,10.6123358 136.587711,11.4331165 C136.948855,12.2538971 137.280445,13.012287 137.582492,13.708309 C137.884539,13.012287 138.212847,12.2538971 138.567424,11.4331165 C138.922001,10.6123358 139.283139,9.80469982 139.650849,9.01018417 C140.018559,8.21566851 140.379697,7.45727859 140.734274,6.73499163 C141.088851,6.01270467 141.410593,5.40205304 141.699507,4.90301842 L143.945152,4.90301842 C144.063344,5.90108767 144.174969,6.96152034 144.280029,8.08434824 C144.385089,9.20717615 144.480298,10.3562518 144.565659,11.5316097 C144.65102,12.7069675 144.729814,13.8888739 144.802043,15.0773643 C144.874271,16.2658546 144.93665,17.4247795 144.98918,18.5541736 L142.546549,18.5541736 C142.494019,16.9651423 142.43164,15.3301718 142.359412,13.6492131 C142.287183,11.9682544 142.178842,10.33985 142.034384,8.76395121 C141.889927,9.06599848 141.719207,9.42713654 141.52222,9.84737623 C141.325232,10.2676159 141.115116,10.7239631 140.891863,11.2164315 C140.668611,11.7088999 140.442079,12.2177762 140.21226,12.7430758 C139.982442,13.2683754 139.759193,13.7772518 139.542507,14.2697202 C139.32582,14.7621885 139.125553,15.2218188 138.941698,15.6486247 C138.757843,16.0754307 138.600256,16.4398518 138.468931,16.7418991 L136.617259,16.7418991 C136.485934,16.4398518 136.328347,16.0721476 136.144492,15.6387754 C135.960637,15.2054032 135.760369,14.7424899 135.543683,14.2500215 C135.326997,13.7575531 135.103748,13.2486768 134.87393,12.7233772 C134.644111,12.1980776 134.417579,11.6924843 134.194327,11.2065822 C133.971074,10.72068 133.760958,10.2643328 133.56397,9.83752691 C133.366983,9.41072098 133.196263,9.05286599 133.051806,8.76395121 C132.907348,10.33985 132.799007,11.9682544 132.726778,13.6492131 C132.65455,15.3301718 132.592171,16.9651423 132.539641,18.5541736 L130.09701,18.5541736 C130.14954,17.4247795 130.211919,16.2560054 130.284147,15.0478163 C130.356376,13.8396272 130.43517,12.6413055 130.520531,11.4528151 C130.605892,10.2643248 130.701101,9.11196604 130.806161,7.99570438 C130.911221,6.87944272 131.022846,5.84855771 131.141038,4.90301842 L133.445779,4.90301842 Z" id="CXM" fill="#17C4F1"></path>
            </g>
        </g>
    </g>
</svg>