<?xml version="1.0" encoding="UTF-8"?>
<svg width="24px" height="27px" viewBox="0 0 24 27" version="1.1" xmlns="http://www.w3.org/2000/svg" xmlns:xlink="http://www.w3.org/1999/xlink">
    <!-- Generator: Sketch 57.1 (83088) - https://sketch.com -->
    <title>luminary-mark</title>
    <desc>Created with Sketch.</desc>
    <g id="Page-1" stroke="none" stroke-width="1" fill="none" fill-rule="evenodd">
        <g id="luminary-mark" fill-rule="nonzero">
            <polygon id="Path" fill="#425563" transform="translate(8.860137, 12.002594) rotate(-180.000000) translate(-8.860137, -12.002594) " points="0.4999996 15.4350504 0.4999996 6.80768485 11.2945366 0.4999997 17.220274 3.96949757 17.220274 16.8739441 5.89222295 23.505188 2.12436116 21.302783 4.66099939 19.81361 5.89222295 20.5316065 14.6540489 15.4025861 14.6540489 5.45540566 11.2812958 3.48105472 2.99290405 8.32196352 2.99290405 13.9686361"></polygon>
            <polygon id="Path" fill="#17C4F1" points="6.45444433 18.5975796 6.45444433 9.97021398 17.2489813 3.66252883 23.1747188 7.1320267 23.1747188 20.0364732 11.8466677 26.6677171 8.07880589 24.4653121 10.6154441 22.9761391 11.8466677 23.6941356 20.6084936 18.5651152 20.6084936 8.61793478 17.2357405 6.64358385 8.94734878 11.4844926 8.94734878 17.1311652"></polygon>
        </g>
    </g>
</svg>