<svg xmlns="http://www.w3.org/2000/svg" xmlns:xlink="http://www.w3.org/1999/xlink" width="400px" height="400px" viewBox="0 0 400 400" version="1.1">
    <!-- Generator: Sketch 57.1 (83088) - https://sketch.com -->
    <title>favicon</title>
    <desc>Created with Sketch.</desc>
    <defs>
        <path d="M183.1,308.4 C171.399942,306.799992 160.425051,303.600024 150.175,298.8 C139.924949,293.999976 131.200036,288.050035 124,280.95 L135.4,264 C136.400005,262.5 137.724992,261.275005 139.375,260.325 C141.025008,259.374995 142.749991,258.9 144.55,258.9 C146.750011,258.9 149.099987,259.674992 151.6,261.225 C154.100012,262.775008 156.949984,264.599989 160.15,266.7 C163.350016,268.80001 166.999979,270.899989 171.1,273 C175.20002,275.10001 180.049972,276.649995 185.65,277.65 L191.35,210.45 C184.249964,208.44999 177.225035,206.100013 170.275,203.4 C163.324965,200.699986 157.075028,197.125022 151.525,192.675 C145.974972,188.224978 141.500017,182.600034 138.1,175.8 C134.699983,168.999966 133,160.500051 133,150.3 C133,142.699962 134.524985,135.275036 137.575,128.025 C140.625015,120.774964 145.049971,114.300028 150.85,108.6 C156.650029,102.899972 163.799958,98.2000185 172.3,94.5 C180.800042,90.7999815 190.549945,88.7000025 201.55,88.2 L203.2,69.3 C203.400001,66.899988 204.399991,64.7500095 206.2,62.85 C208,60.9499905 210.349986,60 213.25,60 L226.9,60 L224.35,89.55 C234.950053,91.2500085 244.099962,94.2499785 251.8,98.55 C259.500038,102.850022 266.199971,107.699973 271.9,113.1 L262.9,126.75 C261.5,128.75001 260.100007,130.249995 258.7,131.25 C257.299993,132.250005 255.60001,132.75 253.6,132.75 C252.099992,132.75 250.32501,132.275005 248.275,131.325 C246.22499,130.374995 243.875013,129.225007 241.225,127.875 C238.574987,126.524993 235.650016,125.150007 232.45,123.75 C229.249984,122.349993 225.700019,121.200005 221.8,120.3 L216.55,182.4 C223.750036,184.600011 230.874965,187.024987 237.925,189.675 C244.975035,192.325013 251.324972,195.749979 256.975,199.95 C262.625028,204.150021 267.199982,209.374969 270.7,215.625 C274.200017,221.875031 275.95,229.699953 275.95,239.1 C275.95,248.400047 274.400015,257.124959 271.3,265.275 C268.199984,273.425041 263.67503,280.624969 257.725,286.875 C251.77497,293.125031 244.450043,298.19998 235.75,302.1 C227.049957,306.00002 217.100056,308.349996 205.9,309.15 L204.1,331.2 C203.899999,333.500012 202.900009,335.62499 201.1,337.575 C199.299991,339.52501 196.950015,340.5 194.05,340.5 L180.4,340.5 L183.1,308.4 Z M240.85,244.8 C240.85,240.999981 240.175007,237.675014 238.825,234.825 C237.474993,231.974986 235.575012,229.450011 233.125,227.25 C230.674988,225.049989 227.800016,223.150008 224.5,221.55 C221.199983,219.949992 217.600019,218.500007 213.7,217.2 L208.6,278.1 C219.200053,276.7 227.224973,273.125029 232.675,267.375 C238.125027,261.624971 240.85,254.100046 240.85,244.8 Z M167.95,146.7 C167.95,150.500019 168.599993,153.849985 169.9,156.75 C171.200006,159.650014 173.024988,162.224989 175.375,164.475 C177.725012,166.725011 180.499984,168.724991 183.7,170.475 C186.900016,172.225009 190.399981,173.799993 194.2,175.2 L198.85,119.7 C193.349972,120.400003 188.650019,121.574992 184.75,123.225 C180.84998,124.875008 177.650013,126.899988 175.15,129.3 C172.649988,131.700012 170.825006,134.374985 169.675,137.325 C168.524994,140.275015 167.95,143.399983 167.95,146.7 Z" id="path-1"/>
    </defs>
    <g id="Page-1" stroke="none" stroke-width="1" fill="none" fill-rule="evenodd">
        <g id="MoneyLogo">
            <g id="favicon">
                <circle id="Oval" fill="#38BEC9" cx="200" cy="200" r="200"/>
                <g id="$" fill-rule="nonzero">
                    <use fill="#49494A" xlink:href="#path-1"/>
                    <use fill="#FFFFFF" xlink:href="#path-1"/>
                </g>
            </g>
        </g>
    </g>
</svg>