<svg xmlns="http://www.w3.org/2000/svg" xmlns:xlink="http://www.w3.org/1999/xlink" width="250" height="138" viewBox="0 0 250 138">
    <defs>
        <path id="a" d="M.087.027h22.865v27.785H.087z"/>
    </defs>
    <g fill="none" fill-rule="evenodd">
        <g fill="#425563">
            <path d="M124.773 95.504a1.91 1.91 0 0 1-1.91-1.909V83.112a1.91 1.91 0 0 1 1.91-1.908 1.91 1.91 0 0 1 1.911 1.908v10.483a1.91 1.91 0 0 1-1.91 1.909M137.138 93.868a1.911 1.911 0 0 1-2.34-1.35l-2.717-10.126a1.911 1.911 0 0 1 3.692-.988l2.717 10.127a1.908 1.908 0 0 1-1.352 2.337M148.612 89.099a1.913 1.913 0 0 1-2.61-.699l-5.25-9.078a1.907 1.907 0 0 1 .7-2.607 1.912 1.912 0 0 1 2.61.698l5.25 9.08c.527.912.214 2.079-.7 2.606M158.522 81.5a1.913 1.913 0 0 1-2.703 0l-7.423-7.414a1.906 1.906 0 0 1 0-2.698 1.913 1.913 0 0 1 2.702 0l7.424 7.413a1.906 1.906 0 0 1 0 2.698M166.152 71.655a1.912 1.912 0 0 1-2.61.698l-9.093-5.241a1.907 1.907 0 0 1-.699-2.607 1.912 1.912 0 0 1 2.61-.699l9.092 5.242a1.907 1.907 0 0 1 .7 2.607M170.89 60.16a1.911 1.911 0 0 1-2.34 1.35l-10.141-2.713a1.908 1.908 0 1 1 .99-3.687l10.14 2.714a1.908 1.908 0 0 1 1.351 2.337M172.546 47.8a1.91 1.91 0 0 1-1.91 1.908h-10.5a1.91 1.91 0 0 1-1.91-1.909 1.91 1.91 0 0 1 1.91-1.908h10.5a1.91 1.91 0 0 1 1.91 1.908M77 47.8a1.91 1.91 0 0 1 1.91-1.908h10.5a1.91 1.91 0 0 1 1.91 1.908 1.91 1.91 0 0 1-1.91 1.908h-10.5A1.91 1.91 0 0 1 77 47.8M78.638 60.147a1.908 1.908 0 0 1 1.352-2.337l10.14-2.713a1.908 1.908 0 1 1 .99 3.686l-10.141 2.713a1.911 1.911 0 0 1-2.34-1.349M83.414 71.604a1.907 1.907 0 0 1 .7-2.607l9.092-5.242a1.912 1.912 0 0 1 2.61.699c.528.913.214 2.08-.7 2.607l-9.092 5.241a1.912 1.912 0 0 1-2.61-.698M124.773.095a1.91 1.91 0 0 1 1.91 1.909v10.483a1.91 1.91 0 0 1-1.91 1.908 1.91 1.91 0 0 1-1.911-1.908V2.004a1.91 1.91 0 0 1 1.911-1.909M91.024 14.1a1.913 1.913 0 0 1 2.703 0l7.424 7.413a1.906 1.906 0 0 1 0 2.698 1.913 1.913 0 0 1-2.703 0l-7.424-7.413a1.906 1.906 0 0 1 0-2.698M83.394 23.944a1.912 1.912 0 0 1 2.61-.698l9.093 5.241a1.907 1.907 0 0 1 .7 2.607 1.912 1.912 0 0 1-2.611.698l-9.092-5.241a1.907 1.907 0 0 1-.7-2.607M78.656 35.438a1.911 1.911 0 0 1 2.34-1.349l10.141 2.713a1.908 1.908 0 1 1-.989 3.687l-10.14-2.714a1.908 1.908 0 0 1-1.352-2.337M170.908 35.452a1.908 1.908 0 0 1-1.351 2.337l-10.141 2.713a1.908 1.908 0 1 1-.99-3.686l10.142-2.713a1.911 1.911 0 0 1 2.34 1.349M166.132 23.995c.528.913.215 2.08-.7 2.607l-9.091 5.242a1.912 1.912 0 0 1-2.61-.699 1.907 1.907 0 0 1 .699-2.606l9.092-5.242a1.912 1.912 0 0 1 2.61.698M158.522 14.1a1.906 1.906 0 0 1 0 2.698l-7.424 7.413a1.913 1.913 0 0 1-2.703 0 1.906 1.906 0 0 1 0-2.699l7.424-7.412a1.913 1.913 0 0 1 2.703 0M148.663 6.48a1.907 1.907 0 0 1 .7 2.607l-5.25 9.08a1.912 1.912 0 0 1-2.61.697 1.907 1.907 0 0 1-.7-2.606l5.25-9.079a1.912 1.912 0 0 1 2.61-.698M137.152 1.749a1.908 1.908 0 0 1 1.351 2.337l-2.717 10.126a1.911 1.911 0 0 1-3.692-.988l2.718-10.126a1.911 1.911 0 0 1 2.34-1.349M112.408 1.731a1.911 1.911 0 0 1 2.34 1.35l2.717 10.126a1.911 1.911 0 0 1-3.692.988l-2.717-10.127a1.908 1.908 0 0 1 1.352-2.337M100.935 6.5a1.912 1.912 0 0 1 2.61.699l5.25 9.078c.527.913.214 2.08-.7 2.607a1.912 1.912 0 0 1-2.61-.698l-5.25-9.08a1.907 1.907 0 0 1 .7-2.606M91.025 81.5a1.906 1.906 0 0 1 0-2.699l7.423-7.413a1.913 1.913 0 0 1 2.703 0 1.906 1.906 0 0 1 0 2.699l-7.424 7.412a1.913 1.913 0 0 1-2.702 0M100.883 89.118a1.906 1.906 0 0 1-.699-2.606l5.25-9.08a1.913 1.913 0 0 1 2.61-.698 1.907 1.907 0 0 1 .7 2.607l-5.25 9.079a1.912 1.912 0 0 1-2.61.698M112.394 93.85a1.908 1.908 0 0 1-1.351-2.337l2.717-10.126a1.911 1.911 0 0 1 3.692.987l-2.718 10.127a1.911 1.911 0 0 1-2.34 1.349"/>
        </g>
        <g fill="#FF6900">
            <path d="M124.773 75.493a1.91 1.91 0 0 1-1.91-1.908v-5.724a1.91 1.91 0 0 1 1.91-1.909 1.91 1.91 0 0 1 1.911 1.909v5.724a1.91 1.91 0 0 1-1.91 1.908M142.93 47.76a1.91 1.91 0 0 1 1.91-1.907h5.733a1.91 1.91 0 0 1 1.911 1.908 1.91 1.91 0 0 1-1.91 1.908h-5.733a1.91 1.91 0 0 1-1.911-1.908M140.483 56.857a1.912 1.912 0 0 1 2.61-.699l4.965 2.862a1.907 1.907 0 0 1 .7 2.607 1.913 1.913 0 0 1-2.61.698l-4.965-2.862a1.907 1.907 0 0 1-.7-2.606M133.827 63.529a1.913 1.913 0 0 1 2.61.698l2.867 4.958c.528.913.215 2.08-.7 2.607a1.912 1.912 0 0 1-2.61-.699l-2.866-4.958a1.907 1.907 0 0 1 .7-2.606M124.757 20.124a1.91 1.91 0 0 1 1.91 1.908v5.725a1.91 1.91 0 0 1-1.91 1.908 1.91 1.91 0 0 1-1.911-1.908v-5.725a1.91 1.91 0 0 1 1.91-1.908M109.046 38.76a1.912 1.912 0 0 1-2.61.7l-4.965-2.863a1.907 1.907 0 0 1-.7-2.607 1.913 1.913 0 0 1 2.611-.698l4.965 2.862a1.907 1.907 0 0 1 .7 2.607M115.702 32.088a1.912 1.912 0 0 1-2.61-.698l-2.866-4.958a1.907 1.907 0 0 1 .699-2.606 1.913 1.913 0 0 1 2.61.698l2.867 4.958c.527.912.214 2.08-.7 2.606M133.801 32.108a1.907 1.907 0 0 1-.7-2.607l2.867-4.958a1.912 1.912 0 0 1 2.61-.698 1.907 1.907 0 0 1 .7 2.607l-2.866 4.957a1.912 1.912 0 0 1-2.61.699M140.483 38.754a1.907 1.907 0 0 1 .7-2.607l4.965-2.862a1.913 1.913 0 0 1 2.61.698c.528.913.214 2.08-.7 2.607l-4.964 2.862a1.912 1.912 0 0 1-2.61-.698M97.065 47.822a1.91 1.91 0 0 1 1.91-1.908h5.734a1.91 1.91 0 0 1 1.91 1.908 1.91 1.91 0 0 1-1.91 1.909h-5.733a1.91 1.91 0 0 1-1.911-1.909M115.729 63.51a1.906 1.906 0 0 1 .699 2.606l-2.866 4.958a1.912 1.912 0 0 1-2.61.698 1.907 1.907 0 0 1-.7-2.606l2.866-4.958a1.913 1.913 0 0 1 2.61-.698M109.046 56.864c.528.912.215 2.08-.699 2.606l-4.965 2.862a1.913 1.913 0 0 1-2.61-.698 1.907 1.907 0 0 1 .7-2.607l4.964-2.862a1.912 1.912 0 0 1 2.61.699"/>
        </g>
        <g>
            <path fill="#FF6900" d="M166.52 123.466c.007-1.894-.415-3.677-1.353-5.33-2.996-5.283-10.176-5.624-13.536-.642-2.29 3.395-2.293 8.557-.008 11.957 2.859 4.25 8.671 4.792 12.23 1.113 1.908-1.971 2.65-4.405 2.668-7.098m5.158.038c-.074 4.361-1.526 8.132-4.847 11.064-2.07 1.828-4.505 2.829-7.263 3.104-7.77.775-13.729-4.804-14.646-11.977-.533-4.165.273-8.018 2.85-11.382 2.334-3.05 5.46-4.724 9.311-5.044 7.387-.613 13 4.519 14.282 11.059.206 1.048.325 2.103.313 3.176"/>
            <g transform="translate(226.44 109.562)">
                <mask id="b" fill="#fff">
                    <use xlink:href="#a"/>
                </mask>
                <path fill="#FF6900" d="M.087 2.822C.053.894 1.357.006 2.887.027c3.577.049 7.155.057 10.732.005 4.287-.063 7.573 3.287 8.092 7.139.447 3.31-.794 5.902-3.336 7.953-.198.16-.48.259-.092.547 1.687 1.25 2.365 3.009 2.503 5.038.04.598.136 1.194.212 1.79.073.573.334 1.022.812 1.373.64.47 1.146 1.038 1.142 1.911-.006 1.073-.752 1.893-1.824 2.005-1.555.161-2.741-.48-3.66-1.68-.863-1.132-1.19-2.46-1.33-3.844-.055-.546-.07-1.097-.091-1.646-.06-1.518-.988-2.58-2.492-2.836a7.375 7.375 0 0 0-1.283-.107c-1.462.008-3.408-.006-4.87.01-.331.004-.443-.082-.436-.427a75.664 75.664 0 0 0-.001-3.249c-.009-.357.12-.43.443-.428 1.806.012 4.097-.023 5.902.018.896.021 1.544-.324 2.089-.995 1.365-1.683 1.656-4.487.629-6.315-.63-1.121-1.527-1.734-2.881-1.708-2.51.048-5.023.027-7.534.002-.47-.005-.563.14-.562.58.014 6.586.01 13.17.008 19.755 0 .257-.003.517-.037.77-.234 1.77-1.609 2.556-3.264 1.876-1.154-.475-1.65-1.21-1.651-2.461-.002-3.748 0-7.496 0-11.244 0-3.679.046-7.359-.02-11.037z" mask="url(#b)"/>
            </g>
            <path fill="#FF6900" d="M130.21 137.75c-2.555-.075-5.077-.478-7.326-1.928-.723-.467-1.433-.959-2-1.614-1.248-1.44-.66-3.51 1.11-3.929.717-.17 1.359.012 1.93.47 1.08.864 2.218 1.648 3.566 2.016 2.102.574 4.203.666 6.25-.258.28-.127.546-.29.805-.457 2.116-1.354 1.571-3.873.052-4.929-1.142-.794-2.45-1.142-3.78-1.428-1.358-.292-2.748-.421-4.083-.832-1.772-.545-3.378-1.348-4.585-2.813-2.15-2.61-2.464-8.234 1.893-11.066 1.471-.956 3.097-1.484 4.824-1.67 2.847-.306 5.583.115 8.157 1.415.863.436 1.68.95 2.347 1.658.666.706.9 1.56.529 2.474-.354.871-1.016 1.412-1.998 1.476-.468.03-.866-.133-1.248-.396-2.14-1.471-4.473-2.323-7.111-2.114-1.237.098-2.415.39-3.345 1.287-1.325 1.277-1.154 3.448.368 4.483 1.234.84 2.666 1.166 4.1 1.446 1.973.385 3.947.758 5.803 1.57 2.78 1.216 4.096 3.355 4.228 6.376.182 4.148-2.588 6.796-5.636 7.941-1.548.583-3.148.836-4.85.822M209.86 117.298c-.659 1.56-1.278 3.029-1.902 4.497-2 4.708-3.999 9.418-6.005 14.124-.533 1.249-1.48 1.81-2.62 1.586-1.199-.234-1.845-1.275-1.535-2.526.2-.802.589-1.537.904-2.296 2.979-7.166 5.965-14.327 8.952-21.49.723-1.732 2.382-2.29 3.805-1.294.441.31.7.746.903 1.228l5.917 14.105c1.23 2.928 2.461 5.856 3.694 8.782.484 1.15.338 2.18-.42 2.903-1.106 1.055-2.766.77-3.501-.66-.517-1.007-.926-2.068-1.38-3.106-.228-.519-.468-1.033-.66-1.566-.125-.347-.314-.457-.682-.455-2.7.016-5.885.01-8.586.009-.568 0-.572-.004-.352-.51.518-1.198 1.06-2.385 1.549-3.595.159-.392.372-.493.77-.486 1.392.023 3.27.005 4.664.01.296.002.47-.027.31-.4-1.265-2.912-2.518-5.83-3.824-8.86M176.735 123.454c0-3.782.023-7.564-.01-11.345-.015-1.864 1.751-2.83 3.222-2.396 1.02.301 1.683 1.197 1.74 2.361.008.172.002.344.002.516 0 6.498.007 12.995-.014 19.493-.002.54.154.64.657.636 3.198-.023 6.397-.016 9.596-.009 1.151.003 2.04.577 2.366 1.493.533 1.499-.431 2.995-2.022 3.13-.171.015-.343.013-.515.013-4.11.001-8.22-.032-12.33.018-1.52.018-2.737-.984-2.71-2.72.058-3.729.018-7.46.018-11.19"/>
            <path fill="#425563" d="M86.315 133.03v-21.801c0-.206-.006-.413.01-.619a1.081 1.081 0 0 1 1.104-1.003c.577.006 1.018.403 1.074.976.015.154.01.31.01.464V136.014c-.015.698-.27 1.087-.835 1.272-.536.174-1.107-.028-1.49-.543-1.57-2.11-3.137-4.222-4.705-6.333l-11.868-15.981c-.06-.081-.129-.155-.291-.35v.65c0 7.084-.001 14.169.003 21.253 0 .407-.02.787-.37 1.074-.35.288-.726.377-1.15.205-.423-.17-.65-.49-.676-.946-.006-.104-.004-.207-.004-.31 0-8.322.002-16.645-.005-24.967 0-.551.083-1.034.625-1.306.563-.283 1.157-.105 1.612.504 1.123 1.5 2.233 3.009 3.35 4.513l13.307 17.93c.068.091.148.173.3.35M9.936 137.743c-3.699.069-6.741-1.398-9.308-3.97-.573-.573-.565-1.279-.005-1.819.522-.503 1.177-.494 1.728.097 1.575 1.689 3.458 2.813 5.753 3.184 2.043.33 4.036.217 5.933-.727 3.386-1.685 3.424-5.943.487-7.916-1.431-.963-3.04-1.507-4.653-2.046-1.678-.56-3.377-1.062-4.922-1.955-2.586-1.493-3.845-3.71-3.61-6.708.214-2.721 1.717-4.612 4.14-5.64 4.058-1.72 8.012-1.419 11.707 1.1a4.93 4.93 0 0 1 1.435 1.535c.35.579.232 1.12-.313 1.538-.496.383-1.093.353-1.526-.12-2.47-2.695-6.681-3.405-9.942-2.122-2.499.983-3.602 3.207-2.833 5.683.289.93.897 1.61 1.695 2.137 1.625 1.071 3.438 1.71 5.279 2.283 1.591.496 3.185.997 4.63 1.849 2.727 1.605 3.773 3.955 3.495 6.93-.315 3.387-2.559 5.165-5.566 6.18-1.164.393-2.38.516-3.604.507M56.295 123.492v-12.378c0-.822.247-1.235.841-1.43.796-.261 1.56.21 1.672 1.04.025.187.016.378.016.567l.001 24.342c0 .275.004.55-.083.816a1.26 1.26 0 0 1-1.347.892c-.612-.055-1.01-.456-1.087-1.112-.021-.187-.013-.378-.013-.566v-12.171M113.235 135c-.153-.012-.31-.005-.464-.005-4.077 0-8.154-.007-12.23.009-.43.002-.583-.075-.582-.553.008-3.403 0-6.806 0-10.209 1.647-.013 4.92-.003 6.2-.003 1.41-.001 2.819.006 4.228-.003.763-.006 1.253-.466 1.253-1.142 0-.69-.478-1.2-1.208-1.203-2.692-.013-7.515-.004-10.472-.01-.001-3.135.006-6.27 0-9.404 0-.447.138-.529.55-.527 4.095.015 8.19.01 12.283.009.19 0 .38.01.567-.012.763-.095 1.2-.772.978-1.5-.176-.579-.598-.842-1.37-.842-4.662-.002-9.324-.002-13.986 0-1.13 0-1.5.375-1.5 1.525v12.328c0 4.178-.002 8.356 0 12.534.001.879.404 1.349 1.198 1.35 4.834.008 9.668.007 14.502.001.727 0 1.214-.473 1.22-1.126.007-.631-.495-1.158-1.167-1.216M28.784 111.043c-.001-.777-.372-1.282-1.015-1.414-.887-.18-1.509.446-1.51 1.532 0 8.202 0 16.404.002 24.606 0 .205.012.413.049.614.105.577.525.935 1.106.962.82.038 1.367-.558 1.368-1.512v-24.788zM47.361 110.726c-.072-.68-.53-1.105-1.193-1.118a1.253 1.253 0 0 0-1.279 1.1c-.03.238-.038.48-.038.72-.002 3.353-.005 6.705.005 10.059 0 .35-.05.521-.469.52-4.27-.011-9.025-.008-13.295-.002a.331.331 0 0 0-.33.331v1.58c0 .223.18.403.402.404 4.2.011 8.886.012 13.086-.006.524-.002.613.17.61.644-.019 3.542-.011 7.085-.009 10.627 0 .215.004.433.031.646.085.672.703 1.182 1.376 1.108.685-.077 1.112-.642 1.112-1.492.002-4.127.001-8.253.001-12.38v-12.226c0-.172.009-.345-.01-.515"/>
        </g>
    </g>
</svg>
