<?xml version="1.0" encoding="UTF-8"?>
<svg width="259px" height="175px" viewBox="0 0 259 175" version="1.1" xmlns="http://www.w3.org/2000/svg" xmlns:xlink="http://www.w3.org/1999/xlink">
    <!-- Generator: Sketch 57.1 (83088) - https://sketch.com -->
    <title>LogoGroup</title>
    <desc>Created with Sketch.</desc>
    <g id="Page-1" stroke="none" stroke-width="1" fill="none" fill-rule="evenodd">
        <g id="Logo" transform="translate(-91.000000, -106.000000)">
            <g id="LogoGroup" transform="translate(91.000000, 107.000000)">
                <g id="words" transform="translate(0.000000, 13.000000)" fill="#0552B5" fill-rule="nonzero">
                    <path d="M21.0272165,64.0735502 C23.2259904,64.0735502 25.0523639,63.8437081 26.5063918,63.384017 C27.9604196,62.9243258 29.1129854,62.28784 29.9641237,61.4745403 C30.815262,60.6612406 31.4004108,59.7418722 31.7195876,58.7164074 C32.0387645,57.6909425 32.1983505,56.6478129 32.1983505,55.5869873 C32.1983505,54.2432748 31.8082513,53.0410237 31.0280412,51.980198 C30.2478312,50.9193723 29.2548514,49.9823237 28.0490722,49.169024 C26.8432929,48.3557244 25.4956776,47.6131575 24.0061856,46.9413013 C22.5166936,46.269445 21.0272239,45.6506393 19.537732,45.0848656 C17.5517426,44.3776485 15.494856,43.564361 13.3670103,42.6449788 C11.2391646,41.7255965 9.30640044,40.5587058 7.56865979,39.1442716 C5.83091915,37.7298373 4.39464485,35.9795012 3.25979381,33.8932107 C2.12494278,31.8069203 1.55752577,29.2079364 1.55752577,26.096181 C1.55752577,19.9433921 3.56121708,15.1343879 7.56865979,11.669024 C11.5761025,8.20366018 17.0906865,6.47100424 24.1125773,6.47100424 C28.1554841,6.47100424 31.6841086,6.93068847 34.6985567,7.85007072 C37.7130048,8.76945297 40.2486495,9.7949024 42.305567,10.9264498 L38.4754639,21.0042433 C36.7022592,20.0141393 34.7340314,19.1654915 32.5707216,18.4582744 C30.4074119,17.7510573 27.9072307,17.397454 25.0701031,17.397454 C18.1191405,17.397454 14.6437113,19.9080371 14.6437113,24.9292786 C14.6437113,26.2022694 14.998347,27.3161197 15.7076289,28.2708628 C16.4169108,29.2256059 17.3212316,30.0742537 18.4206186,30.8168317 C19.5200055,31.5594097 20.7612302,32.2135757 22.1443299,32.7793494 C23.5274296,33.3451231 24.8927768,33.8755279 26.2404124,34.3705799 C28.2973299,35.1485187 30.4428754,36.0148467 32.6771134,36.9695898 C34.9113514,37.9243329 36.968238,39.1973046 38.8478351,40.7885431 C40.7274321,42.3797816 42.2700971,44.3599599 43.4758763,46.7291372 C44.6816555,49.0983145 45.2845361,52.086262 45.2845361,55.6930693 C45.2845361,61.8458582 43.2808448,66.601822 39.2734021,69.9611033 C35.2659593,73.3203845 29.1839583,75 21.0272165,75 C15.5657459,75 11.2037277,74.4165546 7.94103093,73.2496464 C4.6783342,72.0827382 2.23134836,71.0042482 0.6,70.0141443 L4.43010309,59.4059406 C6.34516421,60.537488 8.63256402,61.5982977 11.2923711,62.5884017 C13.9521782,63.5785057 17.1970943,64.0735502 21.0272165,64.0735502 Z M56.2428866,73.6209335 L56.2428866,2.22772277 L69.3290722,5.68434189e-14 L69.3290722,24.1867044 C70.392995,23.8330958 71.6696833,23.4971727 73.1591753,23.178925 C74.6486672,22.8606773 75.9608191,22.7015559 77.0956701,22.7015559 C80.783936,22.7015559 83.8692659,23.2496409 86.3517526,24.3458274 C88.8342392,25.442014 90.8201987,26.9978683 92.3096907,29.0134371 C93.7991827,31.0290058 94.8630896,33.433508 95.5014433,36.2270156 C96.139797,39.0205232 96.4589691,42.1145516 96.4589691,45.5091938 L96.4589691,73.6209335 L83.3727835,73.6209335 L83.3727835,47.2065064 C83.3727835,42.5388734 82.8408301,39.1796425 81.7769072,37.1287129 C80.7129844,35.0777832 78.6915613,34.0523338 75.7125773,34.0523338 C74.5067981,34.0523338 73.3187687,34.1937751 72.1484536,34.476662 C70.9781385,34.7595488 70.0383541,35.0070711 69.3290722,35.2192362 L69.3290722,73.6209335 L56.2428866,73.6209335 Z M152.421031,71.4992928 C149.72576,72.7722836 147.190115,73.6386116 144.814021,74.0983027 C142.437926,74.5579938 140.256917,74.7878359 138.270928,74.7878359 C134.866375,74.7878359 132.011558,74.2927914 129.706392,73.3026874 C127.401226,72.3125835 125.55712,70.8804903 124.174021,69.0063649 C122.790921,67.1322396 121.815673,64.8514986 121.248247,62.1640736 C120.680822,59.4766485 120.397113,56.4003002 120.397113,52.9349364 L120.397113,34.582744 L106.566186,34.582744 L106.566186,23.7623762 L133.483299,23.7623762 L133.483299,54.6322489 C133.483299,57.6025608 134.032984,59.8125812 135.132371,61.2623762 C136.231758,62.7121713 138.058132,63.437058 140.611546,63.437058 C141.817326,63.437058 143.271332,63.2779365 144.973608,62.9596888 C146.675885,62.6414411 148.590917,61.9872751 150.718763,60.9971711 L152.421031,71.4992928 Z M162.634639,25.3536068 C164.975269,24.7171114 167.86555,24.1159859 171.305567,23.5502122 C174.745584,22.9844385 178.48699,22.7015559 182.529897,22.7015559 C186.501876,22.7015559 189.799987,23.2496409 192.42433,24.3458274 C195.048673,25.442014 197.123291,26.9978683 198.648247,29.0134371 C200.173204,31.0290058 201.254842,33.433508 201.893196,36.2270156 C202.53155,39.0205232 202.850722,42.1145516 202.850722,45.5091938 L202.850722,73.6209335 L189.764536,73.6209335 L189.764536,47.2065064 C189.764536,42.5388734 189.232583,39.1796425 188.16866,37.1287129 C187.104737,35.0777832 184.94146,34.0523338 181.678763,34.0523338 C180.685768,34.0523338 179.71052,34.0876941 178.75299,34.1584158 C177.795459,34.2291376 176.784748,34.3352185 175.720825,34.476662 L175.720825,73.6209335 L162.634639,73.6209335 L162.634639,25.3536068 Z M212.425979,49.115983 C212.425979,44.7312369 213.099787,40.8769615 214.447423,37.553041 C215.795058,34.2291206 217.568236,31.453335 219.76701,29.2256011 C221.965784,26.9978672 224.483697,25.3182518 227.320825,24.1867044 C230.157952,23.055157 233.065964,22.4893918 236.044948,22.4893918 C243.42148,22.4893918 249.024723,24.6640518 252.854845,29.0134371 C256.684968,33.3628223 258.6,39.7100007 258.6,48.0551627 C258.6,48.9038232 258.582268,49.7878313 258.546804,50.7072136 C258.51134,51.6265958 258.458145,52.3691627 258.387216,52.9349364 L225.937732,52.9349364 C225.937732,56.1881351 227.285347,58.7517587 229.980619,60.625884 C232.67589,62.5000094 236.151319,63.437058 240.40701,63.437058 C243.031353,63.437058 245.531535,63.1541754 247.907629,62.5884017 C250.283723,62.022628 252.287415,61.4568628 253.918763,60.8910891 L255.727423,72.029703 C253.457721,72.8076418 251.046198,73.4618078 248.492784,73.9922207 C245.939369,74.5226335 243.06682,74.7878359 239.875052,74.7878359 C235.61936,74.7878359 231.807027,74.2397509 228.437938,73.1435644 C225.068849,72.0473778 222.196301,70.4208029 219.820206,68.2637907 C217.444112,66.1067785 215.617738,63.4370739 214.341031,60.2545969 C213.064324,57.0721199 212.425979,53.3592857 212.425979,49.115983 Z M245.939381,43.9179632 C245.939381,42.5742507 245.762064,41.2835988 245.407423,40.0459689 C245.052782,38.8083389 244.485365,37.6944887 243.705155,36.7043847 C242.924945,35.7142808 241.931965,34.9186734 240.726186,34.3175389 C239.520406,33.7164043 238.030937,33.4158416 236.257732,33.4158416 C234.555455,33.4158416 233.083718,33.6987242 231.842474,34.2644979 C230.601231,34.8302716 229.572788,35.6081987 228.757113,36.5983027 C227.941439,37.5884066 227.303095,38.7199371 226.842062,39.9929279 C226.381029,41.2659187 226.079588,42.5742507 225.937732,43.9179632 L245.939381,43.9179632 Z" id="Shine"></path>
                    <path d="M32.6,161 L32.6,82 L64.8525551,82 C67.319976,82 69.8226083,82.3032942 72.3605269,82.9098916 C74.8984456,83.516489 77.2424603,84.7118249 79.3926414,86.495935 C81.5428225,88.2800451 83.2699912,90.9204884 84.5741994,94.4173442 C85.8784076,97.9142 86.5305019,102.588498 86.5305019,108.440379 C86.5305019,114.292261 85.8607834,119.002241 84.5213264,122.570461 C83.1818693,126.138681 81.4370764,128.868328 79.2868953,130.759485 C77.1367142,132.650642 74.8103237,133.935182 72.3076539,134.613144 C69.8049841,135.291105 67.3904727,135.630081 65.0640472,135.630081 C63.8655856,135.630081 62.3675311,135.576559 60.5698387,135.469512 C58.7721464,135.362466 56.9039843,135.219739 54.9652964,135.041328 C53.0266085,134.862917 51.2289431,134.684509 49.5722462,134.506098 C47.9155493,134.327687 46.5937365,134.167119 45.6067681,134.02439 L45.6067681,161 L32.6,161 Z M46.0826255,124.133333 L63.5752925,124.133333 C65.6126013,124.133333 67.4040011,123.658364 68.9495456,122.70841 C70.4950902,121.758457 71.6893567,120.210408 72.5323811,118.064217 C73.3754054,115.918026 73.7969112,112.980252 73.7969112,109.250805 C73.7969112,105.591725 73.3578426,102.706725 72.4796923,100.595718 C71.601542,98.4847102 70.4424009,96.9894357 69.0022344,96.1098493 C67.5620679,95.2302628 65.8936073,94.7904762 63.9968026,94.7904762 L46.0826255,94.7904762 L46.0826255,124.133333 Z M98.5150579,161 L98.5150579,82 L111.723843,82 L111.723843,116.147696 L145.121665,116.147696 L145.121665,82 L158.437838,82 L158.437838,161 L145.121665,161 L145.121665,128.02981 L111.723843,128.02981 L111.723843,161 L98.5150579,161 Z M172.669498,161 L172.669498,82 L204.922053,82 C207.389474,82 209.892106,82.3032942 212.430025,82.9098916 C214.967944,83.516489 217.311958,84.7118249 219.462139,86.495935 C221.612321,88.2800451 223.339489,90.9204884 224.643697,94.4173442 C225.947906,97.9142 226.6,102.588498 226.6,108.440379 C226.6,114.292261 225.930282,119.002241 224.590824,122.570461 C223.251367,126.138681 221.506574,128.868328 219.356393,130.759485 C217.206212,132.650642 214.879822,133.935182 212.377152,134.613144 C209.874482,135.291105 207.459971,135.630081 205.133545,135.630081 C203.935084,135.630081 202.437029,135.576559 200.639337,135.469512 C198.841644,135.362466 196.973482,135.219739 195.034794,135.041328 C193.096107,134.862917 191.298441,134.684509 189.641744,134.506098 C187.985047,134.327687 186.663235,134.167119 185.676266,134.02439 L185.676266,161 L172.669498,161 Z M186.152124,124.133333 L203.644791,124.133333 C205.682099,124.133333 207.473499,123.658364 209.019044,122.70841 C210.564588,121.758457 211.758855,120.210408 212.601879,118.064217 C213.444903,115.918026 213.866409,112.980252 213.866409,109.250805 C213.866409,105.591725 213.427341,102.706725 212.54919,100.595718 C211.67104,98.4847102 210.511899,96.9894357 209.071732,96.1098493 C207.631566,95.2302628 205.963105,94.7904762 204.066301,94.7904762 L186.152124,94.7904762 L186.152124,124.133333 Z" id="PHP"></path>
                </g>
                <g id="sun" transform="translate(107.000000, 0.000000)" stroke="#FADB5F" stroke-linecap="round" stroke-linejoin="round" stroke-width="2">
                    <path d="M14.34375,0 L14.34375,1.6875 L14.34375,0 Z M14.34375,25.3125 L14.34375,27 L14.34375,25.3125 Z M27,14.34375 L25.3125,14.34375 L27,14.34375 Z M1.6875,14.34375 L0,14.34375 L1.6875,14.34375 Z M23.3777812,23.3777813 L22.1847187,22.1847187 L23.3777812,23.3777813 Z M4.81528125,4.81528125 L3.62221875,3.62221875 L4.81528125,4.81528125 Z M23.3777812,3.62221875 L22.1847187,4.81528125 L23.3777812,3.62221875 Z M4.81528125,22.1847187 L3.62221875,23.3777813 L4.81528125,22.1847187 Z M8.4375,11.390892 C9.87006479,9.07604016 12.7905998,7.94745321 15.5581024,8.63926633 C18.3256051,9.33107944 20.25,11.6707894 20.25,14.34375 C20.25,17.0167106 18.3256051,19.3564206 15.5581024,20.0482337 C12.7905998,20.7400468 9.87006479,19.6114598 8.4375,17.296608 L8.4375,11.390892 Z" id="Shape"></path>
                </g>
            </g>
        </g>
    </g>
</svg>