<?xml version="1.0" encoding="UTF-8"?>
<svg width="96px" height="96px" viewBox="0 0 96 96" version="1.1" xmlns="http://www.w3.org/2000/svg" xmlns:xlink="http://www.w3.org/1999/xlink">
    <!-- Generator: Sketch 57.1 (83088) - https://sketch.com -->
    <title>shine-solar-mark</title>
    <desc>Created with Sketch.</desc>
    <g id="Page-1" stroke="none" stroke-width="1" fill="none" fill-rule="evenodd">
        <g id="shine-solar-mark" fill-rule="nonzero">
            <g id="Group" fill="#425563">
                <path d="M47.773,95.504 C46.7185265,95.504 45.8635521,94.6494733 45.863,93.595 L45.863,83.112 C45.8641038,82.0579173 46.7189167,81.2039997 47.773,81.2039997 C48.8274737,81.2034473 49.682896,82.0575267 49.684,83.112 L49.684,93.595 C49.6834479,94.6494733 48.8284735,95.504 47.774,95.504 M60.138,93.868 C59.1190931,94.140936 58.0717369,93.536692 57.798,92.518 L55.081,82.392 C54.8163851,81.375536 55.4217088,80.3360389 56.4363492,80.0645154 C57.4509896,79.7929919 58.4945805,80.3912302 58.773,81.404 L61.49,91.531 C61.6209297,92.0202031 61.5520051,92.5413894 61.2984103,92.9797408 C61.0448154,93.4180922 60.6273564,93.7376445 60.138,93.868 M71.612,89.099 C70.6980575,89.6252824 69.530583,89.3126139 69.002,88.4 L63.752,79.322 C63.4986495,78.8835718 63.4300703,78.3623828 63.5613822,77.8733399 C63.6926941,77.3842969 64.0131144,76.9675574 64.452,76.715 C65.3656034,76.1879589 66.5334372,76.5002761 67.062,77.413 L72.312,86.493 C72.839,87.405 72.526,88.572 71.612,89.099 M81.522,81.5 C80.7752013,82.2454807 79.5657987,82.2454807 78.819,81.5 L71.396,74.086 C71.0377876,73.7284542 70.8364899,73.2431177 70.8364899,72.737 C70.8364899,72.2308823 71.0377876,71.7455458 71.396,71.388 C72.1426835,70.6431846 73.3513165,70.6431846 74.098,71.388 L81.522,78.801 C81.8802124,79.1585458 82.0815101,79.6438823 82.0815101,80.15 C82.0815101,80.6561177 81.8802124,81.1414542 81.522,81.499 M89.152,71.655 C88.6234372,72.5677239 87.4556034,72.8800411 86.542,72.353 L77.449,67.112 C77.0102842,66.8592751 76.6900761,66.4424616 76.5589556,65.9534331 C76.4278352,65.4644046 76.4965666,64.9433069 76.75,64.505 C77.2782206,63.5919133 78.446135,63.279127 79.36,63.806 L88.452,69.048 C88.8908856,69.3005574 89.2113059,69.7172969 89.3426178,70.2063399 C89.4739297,70.6953828 89.4053505,71.2165718 89.152,71.655 M93.89,60.16 C93.6162631,61.178692 92.5689069,61.782936 91.55,61.51 L81.409,58.797 C80.7503809,58.6201535 80.2361382,58.1053715 80.0599822,57.4465674 C79.8838261,56.7877633 80.0725191,56.0850251 80.5549822,55.6030674 C81.0374453,55.1211098 81.7403809,54.9331535 82.399,55.11 L92.539,57.824 C93.0281718,57.9545716 93.4453904,58.2742135 93.6987832,58.71254 C93.952176,59.1508664 94.020964,59.6719331 93.89,60.161 M95.546,47.8 C95.5448962,48.8540827 94.6900833,49.708 93.636,49.708 L83.136,49.708 C82.0815265,49.708 81.2265521,48.8534733 81.226,47.799 C81.2271038,46.7449173 82.0819167,45.891 83.136,45.891 L93.636,45.891 C94.6900833,45.891 95.5448962,46.7449173 95.546,47.799 M0,47.8 C0.00110375216,46.7459173 0.855916683,45.892 1.91,45.892 L12.41,45.892 C13.4640833,45.892 14.3188962,46.7459173 14.32,47.8 C14.3188962,48.8540827 13.4640833,49.708 12.41,49.708 L1.91,49.708 C0.855916683,49.708 0.00110375216,48.8540827 0,47.8 M1.638,60.147 C1.50707028,59.6577969 1.57599492,59.1366106 1.82958974,58.6982592 C2.08318456,58.2599078 2.50064356,57.9403555 2.99,57.81 L13.13,55.097 C13.7884405,54.9201535 14.4912111,55.1080144 14.9735849,55.5898174 C15.4559587,56.0716203 15.6446516,56.774168 15.4685849,57.4328174 C15.2925182,58.0914669 14.7784405,58.6061536 14.12,58.783 L3.979,61.496 C2.96039655,61.7690031 1.91318009,61.1652873 1.639,60.147 M6.414,71.604 C6.16064947,71.1655718 6.0920703,70.6443828 6.22338218,70.1553399 C6.35469405,69.6662969 6.67511439,69.2495574 7.114,68.997 L16.206,63.755 C17.119865,63.228127 18.2877794,63.5409133 18.816,64.454 C19.344,65.367 19.03,66.534 18.116,67.061 L9.024,72.302 C8.1103966,72.8290411 6.94256281,72.5167239 6.414,71.604 M47.773,0.0949997377 C48.8274735,0.0949997377 49.6824479,0.949526673 49.683,2.004 L49.683,12.487 C49.6818962,13.5410827 48.8270833,14.3950003 47.773,14.3950003 C46.7185263,14.3955527 45.863104,13.5414733 45.862,12.487 L45.862,2.004 C45.8622651,1.49743648 46.063751,1.01172583 46.4221331,0.653718864 C46.7805151,0.295711903 47.2664365,0.0947347141 47.773,0.0949997377 M14.024,14.1 C14.7707987,13.3545193 15.9802013,13.3545193 16.727,14.1 L24.151,21.513 C24.5092124,21.8705458 24.7105101,22.3558823 24.7105101,22.862 C24.7105101,23.3681177 24.5092124,23.8534542 24.151,24.211 C23.4042013,24.9564807 22.1947987,24.9564807 21.448,24.211 L14.024,16.798 C13.6657876,16.4404542 13.4644899,15.9551177 13.4644899,15.449 C13.4644899,14.9428823 13.6657876,14.4575458 14.024,14.1 M6.394,23.944 C6.92256281,23.0312761 8.0903966,22.7189589 9.004,23.246 L18.097,28.487 C18.5358856,28.7395574 18.8563059,29.1562969 18.9876178,29.6453399 C19.1189297,30.1343828 19.0503505,30.6555718 18.797,31.094 C18.2684088,32.0073234 17.0998264,32.3197211 16.186,31.792 L7.094,26.551 C6.65511439,26.2984426 6.33469405,25.8817031 6.20338218,25.3926601 C6.0720703,24.9036172 6.14064947,24.3824282 6.394,23.944 M1.656,35.438 C1.93018009,34.4197127 2.97739655,33.8159969 3.996,34.089 L14.137,36.802 C14.7956191,36.9786678 15.3099571,37.4932847 15.4862679,38.1519996 C15.6625786,38.8107144 15.4740763,39.5134526 14.9917679,39.9954996 C14.5094595,40.4775466 13.8066191,40.6656679 13.148,40.489 L3.008,37.775 C2.51864356,37.6446445 2.10118456,37.3250922 1.84758974,36.8867408 C1.59399492,36.4483894 1.52507028,35.9272031 1.656,35.438 M93.908,35.452 C94.038964,35.9410669 93.970176,36.4621336 93.7167832,36.90046 C93.4633904,37.3387865 93.0461718,37.6584284 92.557,37.789 L82.416,40.502 C81.7575595,40.6788465 81.0547889,40.4909856 80.5724151,40.0091826 C80.0900414,39.5273796 79.9013484,38.824832 80.0774151,38.1661826 C80.2534819,37.5075331 80.7675595,36.9928465 81.426,36.816 L91.568,34.103 C92.5866034,33.8299969 93.6338199,34.4337127 93.908,35.452 M89.132,23.995 C89.66,24.908 89.347,26.075 88.432,26.602 L79.341,31.844 C78.427135,32.370873 77.2592206,32.0580867 76.731,31.145 C76.4778842,30.7067831 76.4093306,30.1859275 76.5404366,29.6971403 C76.6715426,29.2083531 76.9915557,28.7917217 77.43,28.539 L86.522,23.297 C87.4356034,22.7699589 88.6034372,23.0822761 89.132,23.995 M81.522,14.1 C81.8802124,14.4575458 82.0815101,14.9428823 82.0815101,15.449 C82.0815101,15.9551177 81.8802124,16.4404542 81.522,16.798 L74.098,24.211 C73.3512013,24.9564807 72.1417987,24.9564807 71.395,24.211 C71.0364812,23.853414 70.8349888,23.367863 70.8349888,22.8615 C70.8349888,22.355137 71.0364812,21.869586 71.395,21.512 L78.819,14.1 C79.5657987,13.3545193 80.7752013,13.3545193 81.522,14.1 M71.663,6.48 C72.1018856,6.73255739 72.4223059,7.14929692 72.5536178,7.63833986 C72.6849297,8.12738281 72.6163505,8.64857177 72.363,9.087 L67.113,18.167 C66.5840952,19.0793611 65.4163418,19.3912094 64.503,18.864 C64.0643859,18.6114457 63.7441606,18.1948882 63.6128632,17.7060866 C63.4815657,17.217285 63.5499671,16.6963382 63.803,16.258 L69.053,7.179 C69.5815628,6.26627614 70.7493966,5.9539589 71.663,6.481 M60.152,1.749 C60.6411718,1.87957158 61.0583904,2.19921354 61.3117832,2.63753998 C61.565176,3.07586641 61.633964,3.59693313 61.503,4.086 L58.786,14.212 C58.5075805,15.2247698 57.4639896,15.8230081 56.4493492,15.5514846 C55.4347088,15.2799611 54.8293851,14.240464 55.094,13.224 L57.812,3.098 C58.0861801,2.07971274 59.1333966,1.47599692 60.152,1.749 M35.408,1.731 C36.4269069,1.45806404 37.4742631,2.06230801 37.748,3.081 L40.465,13.207 C40.7296149,14.223464 40.1242912,15.2629611 39.1096508,15.5344846 C38.0950104,15.8060081 37.0514195,15.2077698 36.773,14.195 L34.056,4.068 C33.9250703,3.57879688 33.9939949,3.05761063 34.2475897,2.61925923 C34.5011846,2.18090784 34.9186436,1.86135549 35.408,1.731 M23.935,6.5 C24.848865,5.97312705 26.0167794,6.2859133 26.545,7.199 L31.795,16.277 C32.322,17.19 32.009,18.357 31.095,18.884 C30.1813966,19.4110411 29.0135628,19.0987239 28.485,18.186 L23.235,9.106 C22.9819671,8.66766178 22.9135657,8.14671496 23.0448632,7.65791336 C23.1761606,7.16911176 23.4963859,6.75255431 23.935,6.5 M14.025,81.5 C13.6664812,81.142414 13.4649888,80.656863 13.4649888,80.1505 C13.4649888,79.644137 13.6664812,79.158586 14.025,78.801 L21.448,71.388 C22.1947987,70.6425193 23.4042013,70.6425193 24.151,71.388 C24.5095188,71.745586 24.7110112,72.231137 24.7110112,72.7375 C24.7110112,73.243863 24.5095188,73.729414 24.151,74.087 L16.727,81.499 C15.9803165,82.2438154 14.7716835,82.2438154 14.025,81.499 M23.883,89.118 C23.4443523,88.8654679 23.1241627,88.4488332 22.9930355,87.9599673 C22.8619084,87.4711013 22.9306132,86.9501545 23.184,86.512 L28.434,77.432 C28.9629248,76.5197489 30.1303189,76.2075492 31.044,76.734 C31.4828856,76.9865574 31.8033059,77.4032969 31.9346178,77.8923399 C32.0659297,78.3813828 31.9973505,78.9025718 31.744,79.341 L26.494,88.42 C25.9654372,89.3327239 24.7976034,89.6450411 23.884,89.118 M35.394,93.85 C34.9048282,93.7194284 34.4876096,93.3997865 34.2342168,92.96146 C33.980824,92.5231336 33.912036,92.0020669 34.043,91.513 L36.76,81.387 C37.0435647,80.3808179 38.0829852,79.7892187 39.092896,80.059203 C40.1028068,80.3291873 40.7083548,81.3605437 40.452,82.374 L37.734,92.501 C37.4598199,93.5192873 36.4126034,94.1230031 35.394,93.85" id="Shape"></path>
            </g>
            <g id="Group" transform="translate(20.000000, 20.000000)" fill="#FF6900">
                <path d="M27.773,55.493 C26.7189167,55.493 25.8641038,54.6390827 25.863,53.585 L25.863,47.861 C25.8635521,46.8065267 26.7185265,45.9519997 27.773,45.9519997 C28.2795635,45.9517347 28.7654849,46.1527119 29.1238669,46.5107189 C29.482249,46.8687258 29.6837349,47.3544365 29.684,47.861 L29.684,53.585 C29.6828962,54.6390827 28.8280833,55.493 27.774,55.493 M45.93,27.76 C45.931655,26.7063079 46.7863066,25.8529997 47.84,25.8529997 L53.573,25.8529997 C54.6274737,25.8524473 55.482896,26.7065267 55.484,27.761 C55.4828962,28.8150827 54.6280833,29.6690003 53.574,29.6690003 L47.841,29.6690003 C46.7865263,29.6695527 45.931104,28.8154733 45.93,27.761 M43.483,36.857 C44.0112206,35.9439133 45.179135,35.631127 46.093,36.158 L51.058,39.02 C51.4968856,39.2725574 51.8173059,39.6892969 51.9486178,40.1783399 C52.0799297,40.6673828 52.0113505,41.1885718 51.758,41.627 C51.2290752,42.5392511 50.0616811,42.8514508 49.148,42.325 L44.183,39.463 C43.7443859,39.2104457 43.4241606,38.7938882 43.2928632,38.3050866 C43.1615657,37.816285 43.2299671,37.2953382 43.483,36.857 M36.827,43.529 C37.7406811,43.0025492 38.9080752,43.3147489 39.437,44.227 L42.304,49.185 C42.832,50.098 42.519,51.265 41.604,51.792 C40.690135,52.318873 39.5222206,52.0060867 38.994,51.093 L36.128,46.135 C35.8749671,45.6966618 35.8065657,45.175715 35.9378632,44.6869134 C36.0691606,44.1981118 36.3893859,43.7815543 36.828,43.529 M27.757,0.124 C28.8110833,0.124 29.6658962,0.977917261 29.667,2.032 L29.667,7.757 C29.6658962,8.81108274 28.8110833,9.66500027 27.757,9.66500027 C26.7025263,9.66555266 25.847104,8.8114733 25.846,7.757 L25.846,2.032 C25.8471038,0.977917261 26.7019167,0.124 27.756,0.124 M12.046,18.76 C11.5181217,19.6734496 10.3501267,19.986705 9.436,19.46 L4.471,16.597 C4.03211439,16.3444426 3.71169405,15.9277031 3.58038218,15.4386601 C3.4490703,14.9496172 3.51764947,14.4284282 3.771,13.99 C4.29995367,13.07715 5.4680957,12.7648699 6.382,13.292 L11.347,16.154 C11.7858856,16.4065574 12.1063059,16.8232969 12.2376178,17.3123399 C12.3689297,17.8013828 12.3003505,18.3225718 12.047,18.761 M18.702,12.088 C17.7883966,12.6150411 16.6205628,12.3027239 16.092,11.39 L13.226,6.432 C12.9728842,5.99378307 12.9043306,5.4729275 13.0354366,4.98414032 C13.1665426,4.49535314 13.4865557,4.07872172 13.925,3.826 C14.8386811,3.29954924 16.0060752,3.61174889 16.535,4.524 L19.402,9.482 C19.929,10.394 19.616,11.562 18.702,12.088 M36.801,12.108 C36.3621144,11.8554426 36.0416941,11.4387031 35.9103822,10.9496601 C35.7790703,10.4606172 35.8476495,9.93942823 36.101,9.501 L38.968,4.543 C39.4965628,3.63027614 40.6643966,3.3179589 41.578,3.845 C42.0168856,4.09755739 42.3373059,4.51429692 42.4686178,5.00333986 C42.5999297,5.49238281 42.5313505,6.01357177 42.278,6.452 L39.412,11.409 C38.8837794,12.3220867 37.715865,12.634873 36.802,12.108 M43.483,18.754 C43.2296495,18.3155718 43.1610703,17.7943828 43.2923822,17.3053399 C43.4236941,16.8162969 43.7441144,16.3995574 44.183,16.147 L49.148,13.285 C50.0616811,12.7585492 51.2290752,13.0707489 51.758,13.983 C52.286,14.896 51.972,16.063 51.058,16.59 L46.094,19.452 C45.1803966,19.9790411 44.0125628,19.6667239 43.484,18.754 M0.065,27.822 C0.0661037522,26.7679173 0.920916683,25.914 1.975,25.914 L7.709,25.914 C8.76308332,25.914 9.61789625,26.7679173 9.619,27.822 C9.61844792,28.8764733 8.76347347,29.7310003 7.709,29.7310003 L1.976,29.7310003 C1.46943648,29.7312653 0.983515112,29.5302881 0.625133078,29.1722811 C0.266751044,28.8142742 0.0652651471,28.3285635 0.065,27.822 M18.729,43.51 C19.1676477,43.7625321 19.4878373,44.1791668 19.6189645,44.6680327 C19.7500916,45.1568987 19.6813868,45.6778455 19.428,46.116 L16.562,51.074 C16.0334372,51.9867239 14.8656034,52.2990411 13.952,51.772 C13.5133859,51.5194457 13.1931606,51.1028882 13.0618632,50.6140866 C12.9305657,50.125285 12.9989671,49.6043382 13.252,49.166 L16.118,44.208 C16.6469248,43.2957489 17.8143189,42.9835492 18.728,43.51 M12.046,36.864 C12.574,37.776 12.261,38.944 11.347,39.47 L6.382,42.332 C5.46831892,42.8584508 4.3009248,42.5462511 3.772,41.634 C3.51864947,41.1955718 3.4500703,40.6743828 3.58138218,40.1853399 C3.71269405,39.6962969 4.03311439,39.2795574 4.472,39.027 L9.436,36.165 C10.349865,35.638127 11.5177794,35.9509133 12.046,36.864" id="Shape"></path>
            </g>
        </g>
    </g>
</svg>