<svg xmlns="http://www.w3.org/2000/svg" xmlns:xlink="http://www.w3.org/1999/xlink" width="42px" height="45px" viewBox="0 0 42 45" version="1.1">
    <!-- Generator: Sketch 57.1 (83088) - https://sketch.com -->
    <title>logo</title>
    <desc>Created with Sketch.</desc>
    <g id="Page-1" stroke="none" stroke-width="1" fill="none" fill-rule="evenodd">
        <g id="Lead-Record" transform="translate(-20.000000, -12.000000)" fill="#0F609B" fill-rule="nonzero">
            <g id="logo" transform="translate(20.000000, 12.000000)">
                <path d="M25.137741,0 C34.2664146,0 41.6666667,7.38217511 41.6666667,16.4885496 L41.6666667,28.5114504 C41.6666667,37.6178249 34.2664146,45 25.137741,45 L16.5289256,45 C7.40025207,45 0,37.6178249 0,28.5114504 L0,16.4885496 C0,7.38217511 7.40025207,0 16.5289256,0 L25.137741,0 Z M23.0199725,10.6083206 C21.1751515,10.6083206 19.5703696,10.8993864 18.2055785,11.4815267 C16.8407875,12.063667 15.7960321,12.8805291 15.071281,13.9321374 C14.3465299,14.9837457 13.9841598,16.1855658 13.9841598,17.5376336 C13.9841598,18.8333653 14.3088811,19.9178201 14.9583333,20.7910305 C15.6077856,21.664241 16.3889991,22.3543486 17.3019972,22.861374 C18.2149954,23.3683995 19.3962278,23.903585 20.84573,24.4669466 C21.9752123,24.9176359 22.8505479,25.2978992 23.4717631,25.6077481 C24.0929783,25.917597 24.6106499,26.302555 25.0247934,26.7626336 C25.4389369,27.2227122 25.6460055,27.7719815 25.6460055,28.410458 C25.6460055,29.4432876 25.1942194,30.2460658 24.2906336,30.8188168 C23.3870478,31.3915678 22.1352238,31.6779389 20.535124,31.6779389 C18.9914982,31.6779389 17.7914414,31.4713761 16.9349174,31.0582443 C16.0783933,30.6451124 15.6501377,30.0160348 15.6501377,29.1709924 C15.6501377,28.9644265 15.6642561,28.7672528 15.6924931,28.5794656 C15.7207302,28.3916785 15.7348485,28.2602294 15.7348485,28.1851145 C15.7913226,27.9034337 15.8195592,27.574811 15.8195592,27.1992366 C15.8195592,26.7861048 15.6595517,26.4480929 15.3395317,26.1851908 C15.0195117,25.9222887 14.6053744,25.7908397 14.0971074,25.7908397 C13.4005934,25.7908397 12.8735096,26.063127 12.5158402,26.6077099 C12.1581708,27.1522928 11.9793388,27.9409872 11.9793388,28.9738168 C11.9793388,30.9268037 12.7323157,32.377438 14.238292,33.3257634 C15.7442683,34.2740887 17.7490692,34.7482443 20.2527548,34.7482443 C23.0764604,34.7482443 25.3306849,34.1520289 27.0154959,32.9595802 C28.7003069,31.7671314 29.5426997,30.0629882 29.5426997,27.8470992 C29.5426997,26.6640399 29.2368029,25.6687827 28.625,24.8612977 C28.0131971,24.0538128 27.2743386,23.4153459 26.4084022,22.9458779 C25.5424658,22.4764099 24.3941761,21.9506136 22.9634986,21.3684733 C21.7775423,20.8990053 20.8551456,20.4952689 20.196281,20.1572519 C19.5374164,19.819235 18.986802,19.3967201 18.5444215,18.8896947 C18.1020409,18.3826692 17.880854,17.77237 17.880854,17.0587786 C17.880854,15.9883916 18.3091096,15.1574457 19.1656336,14.565916 C20.0221576,13.9743864 21.2598634,13.678626 22.8787879,13.678626 C24.0270948,13.678626 24.9871403,13.8851888 25.7589532,14.2983206 C26.530766,14.7114525 26.9166667,15.3123625 26.9166667,16.1010687 C26.9166667,16.2512985 26.88843,16.6080888 26.8319559,17.1714504 C26.7754818,17.4719099 26.7472452,17.8005326 26.7472452,18.1573282 C26.7472452,18.5704601 26.9119588,18.9272504 27.2413912,19.2277099 C27.5708235,19.5281694 27.9802547,19.6783969 28.469697,19.6783969 C29.166211,19.6783969 29.6932948,19.3779419 30.0509642,18.7770229 C30.4086336,18.1761039 30.5874656,17.284128 30.5874656,16.1010687 C30.5874656,14.8992306 30.2439199,13.885195 29.5568182,13.0589313 C28.8697165,12.2326676 27.9520259,11.6176738 26.803719,11.2139313 C25.6554121,10.8101888 24.3941758,10.6083206 23.0199725,10.6083206 Z" id="Combined-Shape"/>
            </g>
        </g>
    </g>
</svg>