<?xml version="1.0" encoding="UTF-8"?>
<svg width="340px" height="340px" viewBox="0 0 340 340" version="1.1" xmlns="http://www.w3.org/2000/svg" xmlns:xlink="http://www.w3.org/1999/xlink">
    <g id="TwilioSecretsLogo" stroke="none" stroke-width="1" fill="none" fill-rule="evenodd">
        <rect x="0" y="0" width="340" height="340"></rect>
        <g id="Group" transform="translate(52.000000, 26.000000)" fill-rule="nonzero" stroke-linejoin="bevel">
            <polygon id="T" stroke="#1D0EBE" fill="#1D0EBE" points="103.570312 215 58.1601562 215 58.1601562 38.6328125 0.005859375 38.6328125 0.005859375 0.83984375 161.724609 0.83984375 161.724609 38.6328125 103.570312 38.6328125"></polygon>
            <path d="M235.369141,226.527344 C235.369141,245.863378 228.411202,261.097601 214.495117,272.230469 C200.579032,283.363337 181.218874,288.929688 156.414062,288.929688 C133.562386,288.929688 113.347744,284.632855 95.7695312,276.039062 L95.7695312,233.851562 C110.222729,240.296907 122.454052,244.837877 132.463867,247.474609 C142.473683,250.111341 151.628865,251.429688 159.929688,251.429688 C169.890675,251.429688 177.5322,249.52541 182.854492,245.716797 C188.176784,241.908184 190.837891,236.244178 190.837891,228.724609 C190.837891,224.52537 189.666027,220.790055 187.322266,217.518555 C184.978504,214.247054 181.536156,211.097671 176.995117,208.070312 C172.454079,205.042954 163.201242,200.209018 149.236328,193.568359 C136.150325,187.415985 126.33597,181.507841 119.792969,175.84375 C113.249967,170.179659 108.02541,163.587928 104.119141,156.068359 C100.212871,148.548791 98.2597656,139.759816 98.2597656,129.701172 C98.2597656,110.755765 104.6806,95.8633354 117.522461,85.0234375 C130.364322,74.1835396 148.113168,68.7636719 170.769531,68.7636719 C181.902399,68.7636719 192.52241,70.0820181 202.629883,72.71875 C212.737355,75.3554819 223.308539,79.0663823 234.34375,83.8515625 L219.695312,119.154297 C208.269474,114.466773 198.821326,111.195322 191.350586,109.339844 C183.879845,107.484366 176.531286,106.556641 169.304688,106.556641 C160.710895,106.556641 154.119164,108.558574 149.529297,112.5625 C144.93943,116.566426 142.644531,121.790983 142.644531,128.236328 C142.644531,132.240254 143.572256,135.73143 145.427734,138.709961 C147.283212,141.688491 150.237284,144.569322 154.290039,147.352539 C158.342794,150.135756 167.937424,155.140589 183.074219,162.367188 C203.09385,171.937548 216.814416,181.532178 224.236328,191.151367 C231.65824,200.770556 235.369141,212.56243 235.369141,226.527344 Z" id="S" stroke="#199473" fill="#199473"></path>
        </g>
    </g>
</svg>