<?xml version="1.0" encoding="UTF-8"?>
<svg width="584px" height="197px" viewBox="0 0 584 197" version="1.1" xmlns="http://www.w3.org/2000/svg" xmlns:xlink="http://www.w3.org/1999/xlink">
    <!-- Generator: Sketch 57.1 (83088) - https://sketch.com -->
    <title>Upvid Logo</title>
    <desc>Created with Sketch.</desc>
    <defs>
        <path d="M68.1,142.8 C60.1999605,142.8 53.3750287,141.275015 47.625,138.225 C41.8749712,135.174985 37.4500155,131.025026 34.35,125.775 C31.2499845,120.524974 29.7,114.700032 29.7,108.3 L29.7,64.05 L52.95,64.05 L52.95,107.7 C52.95,110.400014 53.5999935,112.874989 54.9,115.125 C56.2,117.375011 57.9749887,119.174993 60.225,120.525 C62.4750112,121.875007 65.0499855,122.55 67.95,122.55 C70.750014,122.55 73.2749888,121.875007 75.525,120.525 C77.7750112,119.174993 79.5499935,117.375011 80.85,115.125 C82.1500065,112.874989 82.8,110.400014 82.8,107.7 L82.8,64.05 L106.05,64.05 L106.05,108.3 C106.05,114.700032 104.550015,120.524974 101.55,125.775 C98.549985,131.025026 94.2250282,135.174985 88.575,138.225 C82.9249717,141.275015 76.10004,142.8 68.1,142.8 Z M164.050031,62.25 C170.550063,62.25 176.325005,63.24999 181.375031,65.25 C186.425056,67.25001 190.725013,70.1249813 194.275031,73.875 C197.825048,77.6250188 200.550021,82.0499745 202.450031,87.15 C204.35004,92.2500255 205.300031,97.79997 205.300031,103.8 C205.300031,111.600039 203.725046,118.399971 200.575031,124.2 C197.425015,130.000029 193.100058,134.549984 187.600031,137.85 C182.100003,141.150017 175.700067,142.8 168.400031,142.8 C165.300015,142.8 162.375044,142.400004 159.625031,141.6 C156.875017,140.799996 154.375042,139.625008 152.125031,138.075 C149.875019,136.524992 148.000038,134.700011 146.500031,132.6 L146.050031,132.6 L146.050031,173.55 L122.800031,173.55 L122.800031,103.95 C122.800031,95.549958 124.500014,88.2000315 127.900031,81.9 C131.300048,75.5999685 136.1,70.750017 142.300031,67.35 C148.500062,63.949983 155.749989,62.25 164.050031,62.25 Z M164.050031,82.35 C160.450013,82.35 157.325044,83.2249913 154.675031,84.975 C152.025017,86.7250088 150.000031,89.1249848 148.600031,92.175 C147.200024,95.2250153 146.500031,98.649981 146.500031,102.45 C146.500031,106.250019 147.200024,109.649985 148.600031,112.65 C150.000031,115.650015 152.025017,118.024991 154.675031,119.775 C157.325044,121.525009 160.450013,122.4 164.050031,122.4 C167.650049,122.4 170.750018,121.525009 173.350031,119.775 C175.950044,118.024991 177.975023,115.650015 179.425031,112.65 C180.875038,109.649985 181.600031,106.250019 181.600031,102.45 C181.600031,98.649981 180.875038,95.2250153 179.425031,92.175 C177.975023,89.1249848 175.950044,86.7250088 173.350031,84.975 C170.750018,83.2249913 167.650049,82.35 164.050031,82.35 Z M251.149988,142.8 C246.549965,142.8 242.350007,141.600012 238.549988,139.2 C234.749969,136.799988 232.149995,133.550021 230.749988,129.45 L208.849988,64.05 L234.349988,64.05 L249.799988,118.95 C249.999989,119.350002 250.224987,119.649999 250.474988,119.85 C250.724989,120.05 250.999986,120.15 251.299988,120.15 C251.69999,120.15 252.024987,120.05 252.274988,119.85 C252.524989,119.649999 252.699987,119.350002 252.799988,118.95 L268.549988,64.05 L293.449988,64.05 L271.549988,129.45 C270.149981,133.550021 267.575007,136.799988 263.824988,139.2 C260.074969,141.600012 255.850011,142.8 251.149988,142.8 Z M303.649915,141 L303.649915,64.05 L327.049915,64.05 L327.049915,141 L303.649915,141 Z M315.349915,55.35 C311.649896,55.35 308.449928,54.0000135 305.749915,51.3 C303.049901,48.5999865 301.699915,45.4000185 301.699915,41.7 C301.699915,37.9999815 303.049901,34.7750138 305.749915,32.025 C308.449928,29.2749863 311.649896,27.9 315.349915,27.9 C319.049933,27.9 322.249901,29.2749863 324.949915,32.025 C327.649928,34.7750138 328.999915,37.9999815 328.999915,41.7 C328.999915,45.4000185 327.649928,48.5999865 324.949915,51.3 C322.249901,54.0000135 319.049933,55.35 315.349915,55.35 Z M381.849884,142.8 C375.349852,142.8 369.574909,141.80001 364.524884,139.8 C359.474859,137.79999 355.174902,134.925019 351.624884,131.175 C348.074866,127.424981 345.349894,123.000026 343.449884,117.9 C341.549875,112.799975 340.599884,107.25003 340.599884,101.25 C340.599884,93.449961 342.174868,86.650029 345.324884,80.85 C348.4749,75.049971 352.799857,70.5000165 358.299884,67.2 C363.799912,63.8999835 370.199848,62.25 377.499884,62.25 C380.5999,62.25 383.52487,62.649996 386.274884,63.45 C389.024898,64.250004 391.524873,65.4249923 393.774884,66.975 C396.024895,68.5250078 397.899877,70.3499895 399.399884,72.45 L399.849884,72.45 L399.849884,31.5 L423.099884,31.5 L423.099884,101.1 C423.099884,109.500042 421.399901,116.849969 417.999884,123.15 C414.599867,129.450032 409.799915,134.299983 403.599884,137.7 C397.399853,141.100017 390.149926,142.8 381.849884,142.8 Z M381.849884,122.7 C385.449902,122.7 388.574871,121.825009 391.224884,120.075 C393.874897,118.324991 395.899877,115.925015 397.299884,112.875 C398.699891,109.824985 399.399884,106.400019 399.399884,102.6 C399.399884,98.799981 398.699891,95.400015 397.299884,92.4 C395.899877,89.399985 393.874897,87.0250088 391.224884,85.275 C388.574871,83.5249913 385.449902,82.65 381.849884,82.65 C378.249866,82.65 375.149897,83.5249913 372.549884,85.275 C369.949871,87.0250088 367.924891,89.399985 366.474884,92.4 C365.024877,95.400015 364.299884,98.799981 364.299884,102.6 C364.299884,106.400019 365.024877,109.824985 366.474884,112.875 C367.924891,115.925015 369.949871,118.324991 372.549884,120.075 C375.149897,121.825009 378.249866,122.7 381.849884,122.7 Z" id="path-1"></path>
    </defs>
    <g id="Page-1" stroke="none" stroke-width="1" fill="none" fill-rule="evenodd">
        <g id="Green-Upvid-Logo" transform="translate(-92.000000, -37.000000)">
            <g id="Upvid-Logo" transform="translate(92.000000, 30.000000)">
                <g id="upvid" fill-rule="nonzero">
                    <use fill="#49494A" xlink:href="#path-1"></use>
                    <use fill="#0A6C74" xlink:href="#path-1"></use>
                </g>
                <g id="Arrow" transform="translate(0.000000, 0.919230)" fill="#0A6C74">
                    <g id="Up" transform="translate(447.233406, 0.000000)">
                        <rect id="Rectangle" x="55.7665945" y="7.08077003" width="31" height="196" rx="15.5"></rect>
                        <rect id="Rectangle" transform="translate(46.266594, 56.580770) rotate(35.000000) translate(-46.266594, -56.580770) " x="30.7665945" y="-0.919229969" width="31" height="115" rx="15.5"></rect>
                        <rect id="Rectangle" transform="translate(96.266594, 56.580770) rotate(-35.000000) translate(-96.266594, -56.580770) " x="80.7665945" y="-0.919229969" width="31" height="115" rx="15.5"></rect>
                    </g>
                    <rect id="Rectangle" x="0" y="172.08077" width="534" height="31" rx="15.5"></rect>
                </g>
            </g>
        </g>
    </g>
</svg>